<?xml version="1.0" encoding="UTF-8"?><svg id="Layer_1" xmlns="http://www.w3.org/2000/svg" viewBox="0 0 68.13 66.58"><defs><style>.cls-1{fill:#505050;}</style></defs><path class="cls-1" d="M42.96,30.42c-.49,.61-.58,1.12-.03,1.69,.7,.71,1.47,1.36,2.1,2.13,.98,1.21,.81,2.33-.31,3.4-.99,.95-2.03,.97-3.05,.18-.65-.5-1.2-1.15-1.77-1.75-.58-.62-1.14-1.18-2.06-.56-1.07,.72-1.67,2.49-1.08,3.4,.27,.41,.69,.72,1.04,1.07,5.65,5.65,11.33,11.26,16.91,16.98,1.05,1.08,2.09,1.65,3.43,1.19,.81-.28,2.64-2.17,1.84-3.45-1.71-2.73-3.75-3.96-2.3-5.02,2.71-1.99,3.32-.39,4.7,1.49,1.24,1.69,2.66,4.68,1.84,6.53-1.82,4.09-4.57,5.91-7.79,5.71-1.65-.1-3.42-1.27-4.19-2.03-5.8-5.73-11.54-11.52-17.32-17.27-2.33-2.32-2.01-1.64-5.15-.46-1.48,.56-3.35,.7-4.31,.77-3.81,.31-7.56-2.45-10.35-5.13-.83-.8-.88-2.07-.28-2.64,1.59-1.51,.38-2.26-.54-3.18-3.06-3.06-6.14-6.1-9.17-9.18-2.15-2.18-2.19-2.81-.22-4.81,5.03-5.09,10.09-10.15,15.18-15.18,1.55-1.53,2.5-1.5,4.1,.07,3.32,3.26,6.61,6.57,9.89,9.88,.88,.89,1.62,1.65,2.82,.32,.33-.36,1.47-.53,1.8-.25,1.77,1.45,3.83,2.7,5.12,4.6,1.8,2.63,1.8,8.28-.83,11.51Zm-23.38,1.35c3.96-3.96,7.55-7.59,11.2-11.18,1.15-1.13,1.18-2.33,.18-3.39-2.39-2.53-4.91-4.95-7.37-7.42-.81-.81-2.05-.86-2.63-.26-.8,.83-.68,2.06,.34,2.99,.98,.9,1.88,1.87,2.83,2.81,.76,.75,.52,1.38-.15,2.06-1.06,1.09-2.17,1.48-3.4,.37-.98-.89-1.93-1.83-2.81-2.82-.88-.97-1.56-.85-2.44,.04-.83,.85-1.11,1.52-.13,2.44,1.1,1.01,2.2,2.04,3.15,3.18,.52,.63,.51,1.73,.03,2.27-.69,.76-1.82,.7-2.63,.03-1.02-.85-1.95-1.81-2.82-2.81-1.02-1.18-1.81-.99-2.8,.08-.94,1.02-.53,1.65,.26,2.44,2.94,2.9,5.85,5.83,9.18,9.16Zm18.45-12.45c-5.44,5.44-10.92,10.97-16.47,16.42-.81,.79-1.77,1.76-1.77,1.76,.25,1.61,2.35,2.27,4.09,2.15,2.34-.16,4.65-1.12,7.67-3.76,1.76-1.81,3.46-3.45,5.27-5.29,2.02-2.27,3.49-4.55,3.69-6.19s-.53-4.04-2.49-5.1Z"/><path class="cls-1" d="M51.58,41.16c.05,.59-2.06,2.96-2.76,3.11-.83,.17-3.33-2.25-3.24-3.13,.07-.68,2.37-2.87,3.01-2.87,.64,0,2.93,2.22,2.99,2.89Z"/><path class="cls-1" d="M54.69,43.31c1.01,.53,1.7,1.33,2.07,2.57s-1.95,3.71-3.82,3.18c-1.01-.29-1.83-1.1-2.13-2.11-.58-1.9,.97-2.85,2.32-3.69,.55-.34,1.36-.05,1.57,.05Z"/></svg>