<?xml version="1.0" encoding="UTF-8"?><svg id="Layer_1" xmlns="http://www.w3.org/2000/svg" viewBox="0 0 68.13 66.58"><defs><style>.cls-1{fill:#505050;}</style></defs><path class="cls-1" d="M43.52,44.05c0,1.28,.04,2.28-.01,3.27-.04,.92-.19,1.68,2.02,2.37,2.81,.87,3.44,2.74,3.95,5.56,.58,3.2-1.04,5.66-3.42,7.53-2.04,1.6-7.09,1.66-9.05,0-2.09-1.77-3.61-3.44-3.6-7.03,0-2.66,.59-4.96,3.63-5.99,.99-.34,1.52-1.8,1.5-2.82-.02-.96,.29-2.98-.43-3.06-3.86,0-7.85-.24-11.79,.07-3.33,.27-5.59-.93-7.68-3.35-1.06-1.23-7.42-10.67-9.64-13.73-2.64-3.65-3.29-6-5.47-11-.29-.66-.49-1.81,.79-1.97,.76-.09,4.9,2,5.7,2.56,5.46,3.81,6.87,4.65,12.8,8.2,.86,.51,2.48,1.97,3.06,2.01,.98,.07,.75-.92,.61-1.37-.72-2.34,1.33-2.93,2.55-3.35,.49-.17,1.1-.12,1.52,.65,.89,1.65,2.06,3.14,2.94,4.78,1.43,2.65,1.37,2.68-.8,4.81-2.18,2.14-3.09,2.15-5.75,.46-4.78-3.04-6.53-4.33-11.87-7.66-.23-.14-1.03-.07-1.27,.18-.25,.25-.27,1.08-.14,1.27,7.43,10.49,7.38,12.52,15.15,12.47,3.13-.02,6.27-.04,9.71-.04,0-4.81-.05-9.44,.04-14.06,.02-1.13-.32-1.88-1.13-2.54-3.61-2.94-7.27-5.83-10.81-8.85-1.58-1.35-2.6-.2-3.87,.43-2.77,1.36-2.64,1.22-4.43-1.61-1.34-2.11-4.96-8.1-4.64-8.96,.65-1.72,8.77,.28,10.01,1.35,5.23,4.57,9.13,7.76,14.07,11.94,.59,.5,5.8,3.13,5.86,8.53,.05,4.46-.09,8.94-.09,13.32,1.03,.75,2.04,.48,3,.46,1.36-.04,2.64-.43,2.83-1.45,.88-4.75,9.54-3.13,11.35-2.81,2.72,.48,4.14,5.93,3.34,9.16-1.48,5.94-4.91,5.36-6.23,5.45-1.77,.12-6.16-.32-7.42-3.02s-3.91-2.67-6.87-2.17Zm-2.42,8.82c-2.26-.05-3.37,.96-3.58,3.27-.12,1.35,1.79,3.57,3.22,3.73,1.86,.2,4.08-1.38,4.09-3.1,.03-3.22-.85-3.84-3.73-3.9Zm15-15c-2.26-.05-3.37,.96-3.58,3.27-.12,1.35,1.83,3.35,3.22,3.73,2.68,.72,4.57-1.1,4.59-2.83,.03-3.22-1.34-4.12-4.22-4.17Z"/><path class="cls-1" d="M24.94,20.76c-1.37-.04-2.4-1.08-2.42-2.46-.02-1.37,.98-2.46,2.33-2.54,1.68-.1,2.8,1.03,2.67,2.71-.11,1.34-1.22,2.33-2.58,2.29Z"/></svg>