<?xml version="1.0" encoding="UTF-8"?><svg id="Layer_1" xmlns="http://www.w3.org/2000/svg" viewBox="0 0 68.13 66.58"><defs><style>.cls-1{fill:#505050;}</style></defs><path class="cls-1" d="M53.68,25.38c-.05-.26-.67-.72-.94-.72-1.26,.02-2.21,.92-2.89,1.61-8.51,8.46-17.01,16.93-25.45,25.45-2.08,2.1-4.52,3.49-7.33,2.7-4.52-1.27-8.43-3.77-10.94-7.88-1.19-1.95-3.22-5.87-2.62-8.05,.41-1.49,1.52-2.43,2.54-3.45C15.93,25.15,25.91,15.33,35.67,5.3c2.27-2.33,4.71-2.2,7.15-1.45,5,1.54,11.11,8.37,12.24,13.19,.43,1.83-.46,3.43-.98,5.09-.09,.29-.1,.73,.09,.95s.7-.05,1.04-.21c4.6-2.11,6.43-1.34,9.02,3.18,.69,1.2,.64,1.62,.08,2.86-1.34,3.01-3.55,4.5-6.6,4.51-1.92,0-2.99,.88-4.18,2.08-8.46,8.51-16.99,16.94-25.4,25.5-1.34,1.36-2.72,1.74-4.4,1.47-.82-.13-.93-1.02-.56-1.53,.69-.92,1.61-1.68,2.44-2.5,8.01-8.01,15.85-16.21,24.12-23.94,3.13-2.92,4.59-5.47,3.92-9.12ZM8.81,37.55c-.92-.19-1.91,.38-2.16,1.54-.28,1.28,.3,2.31,.91,3.44,2.37,4.4,6.06,7.18,10.59,8.92,.78,.3,1.92,.41,1.98-1.25,.09-2.49-.26-4.58-1.98-6.65-2.45-2.97-5.19-5.13-9.34-6ZM48.08,12.05c.01-1.34-1.69-3.1-2.38-2.5-1.62,1.4-3.28,2.85-4.53,4.57-.6,.82-.13,2.18,.98,3.01,1.31,.97,1.87,.01,3.33-1.28,.68-.61,1.32-1.22,1.77-1.8,.64-.82,1-1.19,.82-1.99ZM19.56,31.53c.27-.27,.18-.74-.17-.89-3.5-1.48-3.66-1.31-6.3,1.36-.58,.59-1.24,1.12-1.73,1.78-.23,.32-.32,.97-.15,1.31,.47,.94,3.35,1.41,4.06,.71,1.38-1.34,2.73-2.71,4.28-4.27Zm13.62-4.4c-.34-.34-.74-.84-1.23-1.22-.86-.66-1.9-.71-2.67-.04-1.38,1.19-2.65,2.53-3.9,3.87-.77,.82-.14,1.42,.45,2.06,.94,1.02,2.1,1.11,3.04,.36,1.42-1.14,2.63-2.54,3.9-3.86,.19-.2,.51-.57,.41-1.16Zm6.26,4.37c1.62-1.42,3.29-2.84,4.55-4.55,.59-.79,.16-2.16-.95-3.02-1.18-.91-1.74-.14-2.44,.56-1.06,1.06-2.13,2.11-3.17,3.18-.8,.83-.48,1.44,.09,2.14s1.58,1.99,1.91,1.7Zm-4.61-.67c-.2-.29-.62-.31-.85-.05-.96,1.08-1.9,2.13-2.84,3.18-1.49,1.65-1.53,2.8,.19,5.24,.2,.29,.62,.31,.85,.05,.96-1.08,1.9-2.13,2.84-3.18,1.49-1.65,1.53-2.8-.19-5.24Zm-.4-6.08c1,.9,1.21,.6,2.1-.18,1.12-.98,2.04-1.98,2.95-3,1.07-1.19,.76-2.68-.58-3.74-1.2-.95-1.74,.13-2.4,.76-.96,.92-1.85,1.9-2.83,2.8-1,.93-.89,1.71-.05,2.5,.21,.2,.59,.66,.81,.86Zm-6.8-7.25c-.61,.87-.59,1.99,.39,2.38,2.32,.91,2.8,.43,5.22-2.04,.57-.58,1.26-1.09,1.7-1.76,.36-.54-1.67-1.84-2.4-1.88-2.04-.09-4.58,2.81-4.92,3.29Zm-4.39,29.3c.15,.35,.61,.43,.88,.17,1.13-1.11,2.24-2.19,3.29-3.32,.79-.85,1.07-4.54,.31-4.93-1.67-.85-4.18,2.87-4.78,3.42-1.11,1.03-1.35,2.09-.37,3.38,.29,.38,.48,.82,.68,1.28Zm-4.63-7.07c.46,.45,.93,.88,1.56,.75,.34-.07,.51-.11,.62-.21,1.41-1.36,2.82-2.73,4.14-4.17,.21-.22,.1-.93-.09-1.29-.74-1.34-2.56-1.78-3.66-.86-1,.83-1.95,1.76-2.76,2.78-.62,.78-1.39,1.46,.2,3Zm6.53-17.22c-2.23-.03-4.93,1.48-5.94,3.42-.17,.33-.07,.96,.13,1.31,.79,1.35,2.57,1.77,3.67,.8,1.35-1.19,2.6-2.5,3.82-3.83,.24-.26-.07-1.77-1.69-1.69Zm17.5-14.07c.25-.25,.2-.66-.09-.84-2.88-1.85-3.74-1.49-6.51,1.37-.94,.97-1.11,1.94-.9,3.05,.11,.55,2.9,.75,3.61,.29,.4-.26,.71-.68,1.05-1.03,.91-.91,1.81-1.81,2.84-2.84Zm7.67,7.07c-.77-.16-1.16,.42-1.61,.87-1.04,1.04-2.11,2.06-3.12,3.14-.58,.62,.26,3.67,1.09,3.97,.28,.1,.79,.11,.93-.06,5.67-3.61,3.97-7.65,2.71-7.92Zm10.8,11.56c.03-.86-.66-1.56-1.52-1.56-.43,0-.82,0-1.2,0-1.32,.02-2.23,.83-2.24,1.99-.01,1.17,.91,1.97,2.22,2.01,.49,.01,.99,.1,1.47,0,1.06-.19,1.22-.57,1.25-1.51l.03-.94Z"/></svg>