<?xml version="1.0" encoding="UTF-8"?><svg id="Layer_1" xmlns="http://www.w3.org/2000/svg" viewBox="0 0 68.13 66.58"><defs><style>.cls-1{fill:#505050;}</style></defs><path class="cls-1" d="M55.14,24.54c.21-.25,.54-.39,.87-.39h3.04c.46,.31,.52,.77,.52,1.28,0,4.66,.28,9.35-.08,13.98-.4,5.11,1.42,9.76,2.52,14.51,.64,2.76,.92,5.65,2.19,8.58,.34,.78-.21,1.64-1.06,1.64-7.14,0-13.84,0-20.53,.01-.94,0-1.07-.55-1.03-1.26,.02-.48,.48-3.38,.31-4.66-.15-1.14-1.72,.73-2.29,1.44-1.59,2-4.01,2.26-6.13,3.08-.06,.02-.13,.04-.2,.06-7.28,1.37-16.71,.85-23.17-2.05-.06-.03-.11-.06-.17-.09-1.82-1.19-4.39-2.37-6.02-3.67-.66-.53-.69-6.55-.42-8.84,.4-3.36,1.14-5.01,3.27-6.65,.56-.42,2.54-1.04,4.06-1.72,.83-.37,.94-1.52,.18-2.01-2.18-1.43-3.77-3.44-5.11-5.77-2.55-4.41-3.25-9.41-2.09-13.97,1.08-4.26,3.6-8.26,7.74-11,3.26-2.16,6.87-2.89,10.43-3.8,2.62-.67,5.18,.97,7.78,1.54,2.14,.48,1.97,1.73,1.78,3.21-.08,.63-.65,1.1-1.28,1.01-1.33-.18-2.59-.09-4.02-.51-6.23-1.84-14.03,1.45-16.73,9.19-1.41,4.05-1.13,7.77,.63,11.45,1.63,3.42,4.29,5.66,7.94,7.1,6.18,2.43,13.35,.24,16.44-4.98,1.74-2.93,3.19-6.09,3.11-9.71-.03-1.35-1.68-2.01-1.11-3.6,.32-.91,1.39-2.61,2.61-2.79,1.4-.21,2.02,.79,2.45,1.9,1.51,3.88,1.22,7.77-.06,11.63-1.09,3.31-3.28,6.26-6.54,8.84-.64,.5-.57,1.49,.13,1.9,.95,.56,1.88,1.11,2.85,1.56,2.88,1.34,4.66,4.33,4.62,7.51,0,.22,0,.45,0,.67,0,1.36,1.87,1.6,2.27,.3l.02-.06c.97-3.03,1.8-6.02,1.76-9.28-.11-9.99-.05-19.98-.02-29.98,0-1.09-.3-2.18,.63-3.25,1.41-1.63,3.1-3.17,5-3.6,1.37-.31,3.32,.76,4.65,1.72,2.21,1.61,3.04,4.07,2.7,6.83-.19,1.58-1.22,2.31-3.1,2.27-1.85-.04-1.63-.86-2.12-2.49-.36-1.18,.69-3.55-2.03-3.36-1.43,.1-1,2.88-1.02,4.06-.09,6.33,.27,12.01,.28,18.34,0,.66-.04,1.33,.06,1.98,.03,.2,.48,.39,.77,.46,.53,.14,1.09-.12,1.13-.61,.25-2.57-.66-5.3,1.6-7.98Zm-20.88,19.48c-2.4-1.27-5.82-1.9-11.76-1.9-7.01,0-9.7,.48-12.68,3.01-1.4,1.18-1.67,1.94-.54,3.23,2.22,2.51,5.29,3.4,8.37,3.71,3.6,.37,7.32,.42,10.91,0,2.01-.24,4.03-.65,5.81-1.66,2.47-1.4,2.41-5.05-.1-6.38Zm13.34,15.06c.03,.61,.56,1.07,1.17,1.07,2.7,0,5.33,.02,7.95,0,1.68-.02,2.19-.85,1.54-2.32-.73-3.92-1.83-7.88-2.88-11.77-.14-.5-.61-.85-1.13-.85-3.82-.02-3.88,.28-4.67,4.72-.14,.77-.29,1.55-.44,2.29-.45,2.24-1.68,4.37-1.54,6.87Zm-24.96,1.07c4.54,.29,10.36-1.33,13.15-3.02,.97-.59,1.84-3.28,1.69-3.53-.41-.71-.77-.14-1.04,.15-2.31,2.47-5.91,2.47-9.35,2.81-3,.3-6.31,.4-9.56-.36-2.69-.63-5.41-1.41-7.1-2.01-1.49-.53-1.82-2.21-2.77-.52-.68,1.21,.67,2.22,1.63,2.71,1.34,.68,9.25,3.77,13.34,3.77Z"/><path class="cls-1" d="M19.23,14.16c.74-.18,1.17,.31,1.64,.79,3.27,3.29,6.59,6.54,9.83,9.87,1.27,1.31,1.22,2.72-.05,3.72-1.13,.9-2.27,.98-3.4-.17-3.37-3.43-6.79-6.81-10.19-10.21-.8-.81-.75-1.86-.26-2.66,.48-.77,1.16-1.7,2.42-1.33Z"/><path class="cls-1" d="M28.07,12.16c.67-.15,1.19,.12,1.69,.65,1.02,1.1,2.15,2.09,3.15,3.2,1.03,1.14,.94,2.35-.1,3.4-1.03,1.03-2.25,1.1-3.4,.05-1.23-1.12-2.39-2.32-3.53-3.53-.64-.68-.51-1.72-.17-2.3,.44-.76,1.1-1.71,2.37-1.48Z"/><path class="cls-1" d="M54.77,17.3h3.78c.49,0,.93,.34,1.03,.83,.13,.64,.01,1.36-.07,2.1-.05,.43-.35,.8-.76,.91-1.05,.26-2.14,.08-3.13-.05-1.2-.16-1.34-1.19-1.82-2.35-.28-.68,.23-1.43,.97-1.43Z"/><path class="cls-1" d="M36.15,13.99c-1.13,.7-3.77-2.19-3.35-3.47,.38-1.16,1.58-3,2.94-2.36,4.16,1.97,1.16,5.36,.41,5.83Z"/></svg>