<?xml version="1.0" encoding="UTF-8"?><svg id="Layer_1" xmlns="http://www.w3.org/2000/svg" viewBox="0 0 68.13 66.58"><defs><style>.cls-1{fill:#505050;}</style></defs><path class="cls-1" d="M47.62,25.41V14.67h-4.17c-1.16-.96-.68-2.03-.69-2.95-.03-2.09,0-1.9,2.23-1.53,2.34,.38,4.64,.6,7.09-.4,2.98-1.21,6.2-1.82,9.16-3.22,.81-.39,1.97-.06,2.98-.06,.1,.09,.24,.19,.34,.32,.09,.12,.17,.28,.17,.43,0,8.64,0,17.27,0,25.91h0c-3.84,1.41-12.97-2.15-14.06-3.22-.8-.79-1.77-.6-2.69-.19-.28,.13-3.21,.57-3.46,.58-1.61,.06-4.78,1.05-6.88,1.09-.59,.07-.78,.07-.78,.79v10.16h0s-3.44-.14-5.43-.23c-.85-.04-1.56,.65-1.53,1.5,.07,2.69,1.28,5.17,1.85,7.49,.61,2.5,.83,4.99,.91,7.39,.05,1.53-4.45,4.98-6.1,4.92-1.6-.06-3.17,.18-4.82-.38-3.65-1.25-4.37-4.51-4.84-7.42-.37-2.34-2.76-13.47-3.16-15.72-.5-2.83-1.5-4.88-3.61-6.43-3.79-2.78-4.83-5.32-6.54-9.77-2.11-5.5,.75-9.37,2.99-13.53,2.22-4.12,5.98-6.09,10.57-6.79,1.69-.26,8.22-.61,9.52,.43h0c-1.28,3.61-1.28,3.59-4.18,3.64-2.4,.04-4.73-.05-7.11,.91-3.09,1.25-4.58,3.85-6.33,6.25-1.13,1.55-1.53,3-1.64,4.31-.21,2.4,.46,4.8,1.71,6.87,2.31,3.83,5.71,6.53,9.46,6.67,3.26,.13,6.19-.48,9.21-1.92,4.33-2.06,17.76-4.91,19.85-5.17h0Zm-26.48,11.07c-.33,0-.66,0-1,0-2.79,.04-2.8,.06-1.71,3.21,.16,.47,.29,1.26,.3,1.75,.14,4.04,2.84,14.06,3.14,15.14,.39,1.41,1.44,2.89,3.45,2.92,1.65,.03,4.59-2.46,3.08-5.91-1-2.28-3.04-13.04-3.64-15.93-.15-.73-.25-1.23-1.12-1.19-.83,.03-1.66,0-2.49,0ZM59.66,12.49c-.58,0-.75,.03-.9,0-2-.51-3.78,.68-5.46,1.22-1.35,.43-.47,2.94-.55,4.53-.1,2.14,.08,4.3-.06,6.43-.1,1.59,.59,1.71,1.95,1.91,1.68,.25,3.27,1.13,5.01,1.78h0V12.49Z"/><path class="cls-1" d="M20.58,29.51c-6.02-.01-9.8-3.86-9.9-9.77-.05-2.82,1.14-4.83,3.01-6.74,2.09-2.14,4.57-2.61,7.43-2.53,5.68,.15,9.61,4.16,9.61,10.05,0,5.26-4.22,9-10.14,8.99Zm5.14-8.96c0-3.85-1.72-5.97-4.91-6.04-3.06-.07-6.03,2.6-6.09,5.46-.05,2.69,2.79,5.56,5.5,5.54,3.86-.02,5.5-1.49,5.5-4.96Z"/><path class="cls-1" d="M32.78,8.16c.03,1.24-.97,2.24-2.21,2.31-.09,0-.18,.01-.28,.02-1.38,.16-2.42-.81-2.45-1.74-.04-1.07,.69-2.34,1.43-3.23,.66-.79,3.13,.44,3.41,1.73,.06,.29,.09,.58,.1,.9Z"/><path class="cls-1" d="M37.85,8.49c.97-.08,1.79,.7,1.79,1.67v2.92c-1.23,1.16-1.7-.17-2.48-.56-.82-.42-2.5,.83-2.45-1.29,.05-1.85,.76-2.49,3.05-2.73,.03,0,.05,0,.08,0Z"/></svg>