<?xml version="1.0" encoding="UTF-8"?><svg id="Layer_1" xmlns="http://www.w3.org/2000/svg" viewBox="0 0 68.13 66.58"><defs><style>.cls-1{fill:#505050;}</style></defs><path class="cls-1" d="M27.84,31.33c-.45,.64,.02,1.52,.8,1.52,4.29,.01,8.21,.05,12.13-.02,3.31-.07,6.09,.52,8.89,2.81,3.14,2.56,7,4.24,9.98,7.16,.96,.94,1.57,2,2.12,3.13,.99,2.07-.88,5.23-3.34,6.34-2.62,1.18-5.01,.78-6.73-.56-2.63-2.07-9.24-7-10.19-6.87-.65,.09-1.37-.04-1.37,.93,0,1.66,0,3.31,0,5.11,0,.55,.46,.99,1.01,.97,3.77-.1,7.2,.32,9.81,3.3,1.88,2.15,2.24,3.19,1.96,7.67-.03,.51-.46,.92-.97,.92H16.15c-.49,0-.91-.36-.96-.84-.38-3.3,.21-6.27,3.04-8.68,1.79-1.53,3.95-2.25,8.75-2.42,.52-.02,.94-.44,.94-.97v-5.03c0-.52-.41-.95-.92-.97-1.72-.07-3.45-.29-5.02,.1-4.33,1.05-6.61-1.83-8.56-4.53-1.04-1.44-9.38-11.05-9.74-13.01-.6-3.27-.96-6.89-.4-10.12,.38-2.17,.44-5.13,3.73-5.91,.74-.17,1.48-.48,2.27-.49,2.16-.02,4.33-.02,6.49,0,.95,0,1.76,.13,2.72,.71,2.24,1.37,4.6,2.38,4.65,5.54,.05,3.44,.13,6.85-4,8.26-.28,.1-.48,.45-.42,.4,1.07,1.07,2.15,2.15,3.25,3.25,.49,.49,1.33,.33,1.58-.31,.18-.45,.4-.94,.68-1.39,.6-.97,1.47-1.55,2.86-1.51,4.64,.12,9.29,.05,14,.05,.37,0,.73,.2,.88,.54,.33,.77,.2,1.62,.1,2.58-.05,.5-.47,.88-.97,.88-3.34,0-6.66,0-9.97,0-1.87,0-2.26,.01-3.29,1.48ZM7.74,24.48c-.08,1.24,.86,3.12,1.54,4.11,2.13,3.14,10.66,12.3,12.28,12.28,6.49-.06,12.99,.05,19.48-.07,2.05-.04,3.72,.67,5.28,1.76,2.59,1.82,5.14,3.72,7.65,5.66,.73,.56,1.24,.92,2.09,.23,1.22-.99,1.51-1.89,.37-2.75-3.15-2.37-6.49-4.49-9.62-6.89-2.19-1.68-4.55-2.05-7.19-2-5.33,.1-10.66-.03-15.99,.07-1.45,.03-2.42-.39-3.45-1.41-1.63-1.6-8.13-8.35-8.86-10.33-.81-2.2-.23-8.43-.18-8.92,.11-1.09-.38-1.44-1.43-1.39-.89,.04-1.63,0-1.59,1.23,.05,1.66-.29,6.93-.38,8.42Zm26.39,35.37c4,0,13.76,.49,13.99-.79,.18-1.01-3.62-3.32-5.25-3.28-5.83,.18-11.66,.14-17.49,.03-1.76-.04-5.39,2.47-5.25,3.26,.16,.93,.86,.79,1.51,.79,4.17,0,8.33,0,12.5,0Zm-1.84-13.94v5.93c0,.49,.37,.91,.86,.96,.74,.09,1.43,.18,2.05,.05,.45-.1,.77-.5,.77-.95v-5.98c0-.54-.43-.97-.97-.97h-1.74c-.54,0-.97,.43-.97,.97ZM15.13,18.38c0,.65-.02,1.3,0,1.96,.05,1.21,1.1,1.97,2.19,1.5,.87-.37,1.62-.93,1.82-1.99,.35-1.89-.98-4.32-2.85-4.98-.5-.18-1.07,.11-1.13,.58-.12,.96-.04,1.95-.04,2.93Z"/><path class="cls-1" d="M45.11,28.3V15.22c0-.75-.61-1.37-1.37-1.37-1.1,0-2.14-.01-3.18,.01-1.95,.04-1.88,.91-.8,2.1,.76,.84,.46,1.56-.31,2.05-2.5,1.58-5,3.17-7.6,4.58-1.41,.77-3,.22-3.68-1.3-1.52-3.45-3.52-6.59-5.71-9.64-.79-1.1-.5-2.82,.8-3.34,2.66-1.06,4.71-3.08,7.24-4.24,1.04-.48,1.73-.71,2.77,1.32,1.13,2.21,1.18,3.85,3.39,3.48s4.65-.11,7.04-.03c.67,.02,1.29-.44,1.4-1.11,.19-1.15-.06-2.37,.07-3.63,.07-.71,.66-1.25,1.36-1.25,5.02,0,10.11-.03,15.2,.01,2.79,.02,3.38,.63,3.39,3.47,.03,9.83,.02,19.66,0,29.49,0,3.36-.25,3.9-3.56,3.83-.75-.02-1.36-.62-1.36-1.37V20.43c0-.76-.61-1.37-1.37-1.37h-7.31c-.76,0-1.37,.61-1.37,1.37v7.88c0,.76-.61,1.37-1.37,1.37h-2.31c-.76,0-1.37-.61-1.37-1.37ZM58.68,7.02h-8.17c-.76,0-1.37,.61-1.37,1.37,0,1.73-.06,3.4,0,4.97,.03,.74,.64,1.32,1.37,1.32h8.16c.76,0,1.37-.61,1.37-1.37v-4.92c0-.76-.61-1.37-1.37-1.37Zm-24.54,8.3c-.09-.81-2.85-5.25-3.54-5.44-.61-.17-1.37-.21-1.95,0-.72,.27-.7,1.18-.48,1.71,.77,1.82,1.43,3.75,2.61,5.34,.67,.91,3.94,.25,3.36-1.62Z"/><path class="cls-1" d="M56.3,61.45c.11-1.18,.55-1.45,1.95-1.56,1.05-.08,1.9-.91,1.92-1.97,.01-.59-.04-1.19-.05-1.8-.03-1.16,.9-2.13,2.06-2.13h.64c1.14,0,2.06,.92,2.06,2.06v5.57c0,1.14-.92,2.06-2.06,2.06h-4.47c-1.21,0-2.17-1.04-2.06-2.24Z"/><path class="cls-1" d="M56.06,26.71c-3.55,.04-3.78-.23-3.88-3.85-.01-.47,.32-.88,.78-.95,1.01-.16,2.04-.08,3.13-.03,.49,.02,.88,.43,.88,.92v2.98c0,.51-.42,.92-.92,.92Z"/><path class="cls-1" d="M52.22,32.74v-1.77c0-.53,.43-.96,.96-.96h3.02c.4,0,.79,.24,.9,.63,.18,.66,.09,1.4-.01,2.21-.06,.48-.46,.84-.95,.84h-2.96c-.53,0-.96-.43-.96-.96Z"/></svg>