<?xml version="1.0" encoding="UTF-8"?><svg xmlns="http://www.w3.org/2000/svg" viewBox="0 0 864 720"><defs><style>.cls-1,.cls-2,.cls-3,.cls-4{fill:#baa48f;}.cls-5{letter-spacing:.04em;}.cls-6{fill:#e8dccf;}.cls-2{font-size:30px;}.cls-2,.cls-3,.cls-4{font-family:BoucherieBlock, 'Boucherie Block';}.cls-3{font-size:34px;}.cls-7{letter-spacing:.03em;}.cls-8{letter-spacing:.04em;}.cls-4{font-size:94px;}</style></defs><g id="design"><g><path class="cls-1" d="M179.46,277.53c.82,1.73,1.96,3.34,3.39,4.77,1.32,1.34,2.85,2.48,4.55,3.38,1.7,.94,3.81,1.56,5.66,1.65,1.14,.07,2.15,.05,3.12,.03,.65-.01,1.26-.02,1.89,0h11.86c10.19,0,20.72,.01,31.07,.08,12.13,.04,24.04,.14,38.2,.28,14.14,.12,28.51,.26,42.41,.4,34.75,.35,70.62,.71,106.01,.71,1.46,0,2.93,0,4.39,0,1.46,0,2.93,0,4.39,0,35.38,0,71.26-.36,106.01-.71,13.9-.14,28.27-.29,42.41-.4,14.16-.14,26.07-.24,38.2-.28,10.35-.07,20.88-.07,31.07-.07h11.87c.63-.02,1.24,0,1.89,0,.97,.02,1.98,.04,3.11-.03,1.85-.09,3.97-.7,5.66-1.65,1.7-.91,3.24-2.05,4.55-3.38,1.43-1.44,2.57-3.04,3.39-4.77,.87-1.81,1.41-3.84,1.56-5.87,.31-4.22-.86-8.37-3.28-11.66-1.27-1.75-2.9-3.26-4.72-4.35-1.82-1.11-3.83-1.85-5.99-2.21-2.22-.35-4.36-.28-6.38,.19-1.15,.28-2.15,.62-3.07,1.06-.91,.43-1.83,.99-2.74,1.67-3.42,2.61-5.55,6.56-5.72,10.57-.16,3.91,1.66,7.77,4.64,9.82,.24,.16,.57,.1,.73-.13,.1-.14,.12-.32,.06-.48-1.04-2.8-1.05-5.8-.05-8.21,.89-2.09,2.61-3.87,4.71-4.88,.9-.45,1.88-.72,2.99-.84,1.19-.08,2.22,0,3.15,.23,.48,.1,.99,.26,1.51,.47,.56,.22,1.02,.44,1.41,.68,.87,.5,1.65,1.14,2.4,1.97,1.52,1.68,2.54,3.9,2.8,6.1,.15,1.21,.08,2.37-.21,3.45-.35,1.22-.9,2.36-1.61,3.3-.73,.99-1.7,1.89-2.81,2.59-1.09,.69-2.09,1.03-3.37,1.14-.75,.06-1.62,.04-2.55,.02-.65-.01-1.33-.02-1.98-.01h-12.01c-10.16,0-20.67-.01-31.02-.08-12.42-.04-25.06-.15-36.94-.27-1.61-13.79-8.17-26.24-18.65-35.3-37.58-32.49-85.68-50.42-135.42-50.49-49.74,.07-97.83,18-135.41,50.49-10.48,9.06-17.03,21.51-18.65,35.3-11.88,.12-24.52,.23-36.94,.27-10.35,.07-20.86,.07-31.02,.07h-12c-.66,0-1.34,0-1.99,.02-.92,.02-1.8,.03-2.54-.02-1.27-.1-2.28-.44-3.37-1.14-1.11-.7-2.08-1.6-2.81-2.59-.71-.94-1.27-2.08-1.61-3.29-.29-1.09-.37-2.25-.21-3.46,.26-2.2,1.28-4.42,2.8-6.1,.75-.83,1.54-1.47,2.41-1.98,.39-.24,.85-.46,1.41-.68,.51-.21,1.02-.37,1.52-.47,.92-.24,1.94-.31,3.13-.23,1.12,.12,2.1,.4,3.01,.85,2.1,1.01,3.82,2.79,4.7,4.88,1.01,2.41,.99,5.41-.05,8.21-.06,.16-.04,.34,.06,.48,.08,.12,.2,.19,.34,.22,.14,.03,.28,0,.39-.08,2.98-2.06,4.8-5.91,4.64-9.82-.17-4.01-2.31-7.96-5.72-10.57-.9-.67-1.82-1.23-2.73-1.66-.92-.43-1.92-.78-3.07-1.06-2.02-.47-4.17-.54-6.38-.19-2.15,.36-4.17,1.1-5.98,2.2-1.82,1.09-3.45,2.6-4.72,4.35-2.43,3.3-3.59,7.44-3.28,11.67,.15,2.02,.69,4.05,1.56,5.86Zm151.94-41.38c.16,0,.3-.09,.34-.24,1.64-5.67,5.36-10.76,10.18-14.26,15.24-7.57,31.4-13.2,48.07-16.75-2.48,1.42-4.85,3.15-7.07,5.17-3.5,3.19-7.78,8.22-9.25,14.71-.92-2.68-3.73-5.79-7.63-7.24-3.96-1.48-11.83-2.3-20.11,8.88-1.51,2.04-3.94,3.49-6.49,3.9-.11,.02-.21,.09-.26,.2-.05,.11-.04,.23,.03,.32,.38,.57,1.16,1.55,2.13,1.63,.73,.06,1.46-.17,2.03-.61,.47,.66,1.16,1.11,1.87,1.2,.78,.1,1.64-.07,2.48-.5h.02c.86,3.02,3.15,5.46,5.93,6.25,1.92,.55,4.08,.25,5.93-.82,1.71-.99,2.9-2.49,3.33-4.22,.21-.82,.24-1.66,.09-2.5-.03-.15-.16-.27-.31-.28-.15,0-.3,.09-.34,.24-.51,1.72-1.92,3.04-3.6,3.36-1.71,.33-3.58-.37-4.66-1.73-.99-1.26-1.35-3.11-.92-4.85,.49-1.99,1.79-3.43,2.79-4.29,.97-.83,2.5-1.82,4.24-1.76,1.4,.04,3.02,1,3.3,2.52,.02,.11,.1,.21,.2,.25,.1,.04,.23,.03,.32-.03,1.45-.97,3.3-.74,4.97,.61,1.75,1.42,2.43,3.62,2.69,5.2,.27,1.66,.23,3.4,.19,5.08,0,.36-.02,.73-.02,1.09,0,.54-.06,1.12-.12,1.8-.21,2.47-.5,5.82,.76,11.55-14.77-6.13-31.56-8.59-47.35-6.94-10.75,1.13-20.2,4.08-27.6,8.54,.62-.6,1.27-1.18,1.93-1.75,3.92-3.39,7.96-6.62,12.11-9.68,6.3-3.04,13.05-4.43,19.81-4.03Zm100.31-30.65c.06,.11,.17,.17,.29,.17s.23-.07,.29-.17c1.21-2.14,3.04-3.88,5.19-4.97,4.13,.12,8.26,.36,12.36,.73-2.9,.76-5.63,1.95-8.05,3.57-4.7,3.13-8.21,7.84-9.79,13.08-1.57-5.24-5.09-9.95-9.79-13.08-2.42-1.61-5.15-2.81-8.05-3.57,4.1-.37,8.22-.61,12.36-.73,2.15,1.09,3.97,2.82,5.19,4.97Zm90.37,16.15c4.82,3.5,8.54,8.59,10.18,14.26,.04,.15,.18,.25,.34,.24,6.76-.4,13.51,.99,19.81,4.03,4.15,3.06,8.19,6.29,12.11,9.68,.66,.57,1.3,1.15,1.93,1.75-7.41-4.46-16.85-7.41-27.6-8.54-15.79-1.65-32.58,.81-47.35,6.94,1.25-5.73,.97-9.08,.76-11.55-.06-.68-.11-1.26-.12-1.8,0-.36-.01-.72-.02-1.09-.04-1.68-.08-3.41,.19-5.08,.26-1.59,.94-3.78,2.69-5.2,1.66-1.35,3.52-1.58,4.97-.61,.1,.06,.22,.08,.32,.03,.11-.04,.18-.14,.2-.25,.27-1.52,1.89-2.48,3.3-2.52,1.74-.06,3.27,.93,4.24,1.76,1,.86,2.3,2.31,2.79,4.29,.43,1.73,.07,3.59-.92,4.85-1.08,1.36-2.95,2.06-4.66,1.73-1.68-.32-3.09-1.64-3.6-3.36-.04-.15-.19-.25-.34-.24-.16,0-.29,.13-.31,.28-.14,.83-.11,1.68,.09,2.5,.43,1.73,1.61,3.23,3.33,4.22,1.85,1.07,4.01,1.37,5.94,.82,2.78-.8,5.06-3.23,5.93-6.26h.02c.84,.44,1.7,.61,2.48,.51,.71-.09,1.39-.54,1.87-1.2,.57,.45,1.3,.67,2.03,.61,.96-.08,1.75-1.06,2.13-1.63,.06-.1,.07-.22,.03-.32-.05-.11-.14-.18-.26-.2-2.56-.41-4.99-1.86-6.49-3.9-8.28-11.18-16.15-10.36-20.11-8.88-3.89,1.46-6.7,4.57-7.63,7.24-1.47-6.49-5.75-11.52-9.25-14.71-2.22-2.02-4.6-3.75-7.07-5.17,16.68,3.55,32.83,9.18,48.07,16.75Zm-236.4,54.6c.38,.35,.96,.62,1.52,.87,.54,.25,1.1,.51,1.33,.78,.12,.14,.33,.17,.48,.05s.17-.33,.05-.48c-3.16-3.86-2.38-9.72,.02-13.51,2.79-4.41,7.51-7.16,11.31-9.05,12.42-6.2,26.3-8.97,40.14-8,15.52,1.09,28.66,5.27,39.05,12.43,.13,.09,.3,.08,.41-.02,.12-.1,.15-.27,.08-.4-.43-.9-.84-1.82-1.2-2.75-2.83-7.18-3.59-15.32-2.15-22.9,1.44-7.58,5.14-14.87,10.42-20.51,3.69-3.95,7.68-6.62,11.85-7.95,4.82-1.53,10-1.11,13.86,1.14,4.26,2.48,6.87,7.34,6.36,11.83-.02,.15,.07,.29,.2,.35,.14,.06,.3,.02,.39-.1,2.05-2.52,2.83-5.42,2.23-8.29,3.37,3.17,5.73,7.33,6.54,11.55,.82,4.29,.62,9.14-.57,14.41-.66,2.92-1.9,7.08-4.99,9.53-3.24,2.57-8.23,2.73-11.86,.39-3.49-2.25-5.58-6.53-5.32-10.92,.11-1.82,.61-3.45,1.44-4.72,.96-1.45,2.39-2.44,3.91-2.71,1.64-.29,3.36,.34,4.28,1.56,.96,1.28,.92,3.23-.09,4.33-.52,.56-1.32,.88-2.17,.89-.77,0-1.47-.3-1.92-.81-.11-.13-.3-.15-.44-.06-.14,.09-.19,.28-.12,.43,.86,1.81,2.45,3.16,4.35,3.7,1.75,.5,3.54,.25,5.05-.72,3.19-2.05,4.47-6.68,2.85-10.34-1.51-3.43-5.24-5.79-9.27-5.87-3.64-.07-7.42,1.67-10.13,4.65-4.32,4.77-5.34,12.13-2.47,17.89,2.87,5.76,9.34,9.39,15.76,8.83,5.87-.52,11.59-4.59,14.58-10.36,.19-.38,.38-.76,.56-1.16,.18,.39,.36,.78,.56,1.16,2.99,5.78,8.71,9.84,14.58,10.36,6.41,.57,12.89-3.06,15.76-8.83,2.87-5.76,1.85-13.12-2.47-17.89-2.7-2.98-6.5-4.72-10.13-4.65-4.03,.08-7.76,2.44-9.27,5.87-1.61,3.66-.34,8.3,2.85,10.34,1.5,.96,3.29,1.22,5.05,.72,1.9-.54,3.48-1.89,4.34-3.7,.07-.15,.02-.33-.12-.43-.14-.09-.33-.07-.44,.06-.45,.51-1.15,.8-1.92,.81h-.03c-.83,0-1.63-.33-2.14-.89-1.02-1.11-1.06-3.05-.09-4.33,.92-1.22,2.64-1.85,4.28-1.56,1.53,.27,2.95,1.26,3.91,2.71,.84,1.26,1.34,2.9,1.44,4.72,.26,4.38-1.83,8.67-5.32,10.92-3.64,2.34-8.62,2.18-11.86-.39-3.09-2.45-4.33-6.61-4.99-9.53-1.2-5.28-1.39-10.13-.57-14.41,.81-4.22,3.17-8.37,6.54-11.55-.6,2.87,.17,5.77,2.23,8.29,.1,.12,.26,.16,.39,.1,.14-.06,.22-.2,.2-.35-.51-4.49,2.11-9.35,6.36-11.83,3.86-2.24,9.04-2.67,13.86-1.14,4.18,1.33,8.16,4,11.85,7.95,5.27,5.64,8.97,12.93,10.42,20.51,1.44,7.58,.68,15.72-2.15,22.9-.36,.93-.77,1.85-1.2,2.75-.07,.14-.03,.3,.08,.4,.12,.1,.29,.11,.41,.02,10.39-7.16,23.53-11.34,39.05-12.43,13.84-.97,27.73,1.79,40.14,8,3.8,1.9,8.52,4.64,11.31,9.05,2.4,3.79,3.18,9.65,.02,13.51-.12,.14-.1,.36,.05,.48,.06,.05,.14,.08,.21,.08,.1,0,.19-.04,.26-.12,.23-.28,.79-.53,1.33-.78,.56-.26,1.14-.52,1.52-.87,.65-.6,1.2-1.3,1.69-2.18,.72,2.5,1.25,5.07,1.58,7.69-3.65-.03-7.3-.06-10.96-.1,1.14-1.8,1.48-4.14,.83-6.29-.73-2.44-2.66-4.53-5.15-5.61-2.3-.99-5.01-1.14-7.64-.41-3.13,.87-5.93,2.95-7.67,5.7-1.21,1.91-1.9,4.14-2.03,6.4-1.46-.01-2.92-.03-4.37-.04-2.44-2.02-5.11-4.07-7.99-5.83-4.53-2.76-9.02-4.44-13.35-4.99-5.09-.65-10.03,.3-13.92,2.67-3.04,1.85-5.4,4.64-6.69,7.75-4.23-.04-8.46-.07-12.7-.1-.06-.06-.12-.13-.18-.19-1.61-1.86-2.29-4.51-1.77-6.91,.02-.11,0-.23-.09-.31-.08-.08-.2-.12-.31-.09-4.09,.86-7.81,2.93-11.41,4.93-.49,.27-.98,.55-1.47,.81-1.01,.55-2.06,1.11-3.15,1.64-5.17-.03-10.35-.05-15.52-.07,6.79-3.74,13.89-6.93,21.18-9.52,4.67-1.66,10.84-3.6,17.14-3.82,5.26-.18,10.15,.87,14.13,3.05,.12,.06,.26,.05,.36-.03,.11-.08,.16-.21,.13-.34-.92-4.2-3.66-7.93-7.39-10.12,6.99-2.28,14.23-3.9,21.53-4.81,3.04-.38,7.04-.77,11.03-.4,2.7,.25,5.2,.83,7.42,1.73,2.14,.87,3.7,2.58,4.07,4.46,.39,2-.37,4.24-1.94,5.71-1.49,1.4-3.67,2.13-5.85,1.95-1.79-.15-3.56-.94-4.98-2.25-.12-.11-.29-.12-.42-.03-.13,.09-.18,.26-.12,.41,1.24,2.95,3.4,5.3,6.1,6.59,4.34,2.09,9.82,1.18,13.05-2.15,2.8-2.89,3.29-7.61,1.39-11.38,5.64,4,11.86,6.89,18.51,8.61,.13,.03,.27-.01,.35-.12,.08-.11,.09-.26,.02-.37-4.71-8.01-13.59-13.94-24.35-16.27-10.62-2.3-21.51-.99-29.8,.41-17.71,2.99-32.89,7.41-46.34,13.5,4.92-6.01,8.25-12.6,9.67-19.12,1.73-7.95,.61-16.15-3.08-22.48-4.09-7.02-11.3-11.66-18.82-12.1-1.73-.1-3.06,.06-4.2,.51-1.49,.58-2.61,1.71-3.02,3.02-.47,1.52,.16,3.27,1.43,3.98,1.45,.81,3.14,.22,4.63-.29,.25-.09,.5-.17,.74-.25,3.1-1,6.67-.67,9.54,.88,2.65,1.43,4.98,4.07,6.06,6.79-2.35-1.6-5.27-1.93-8.15-.88-.13,.05-.22,.18-.22,.32s.09,.27,.23,.32c3.87,1.34,7.12,4.68,8.7,8.92,1.78,4.81,1.16,9.59,.33,12.76-.98,3.72-2.83,7.55-5.66,11.69-6.12,8.97-14.61,16.31-24.34,21.13-4.11,0-8.21,0-12.31,0,14.34-4.26,26.79-14.5,33.42-27.54,.07-.14,.04-.31-.09-.41-.12-.1-.3-.1-.42,0l-6.96,5.35c-1.65,1.27-3.36,2.58-5.28,3.43-2.11,.93-4.24,1.13-5.99,.58-2.04-.65-3.55-2.38-3.66-4.21-.01-.18-.16-.32-.35-.32-.18,0-.33,.15-.33,.34-.04,6.35-3.2,12.22-8.92,16.6-.18-2.36,.7-4.63,1.61-7.03,.86-2.23,1.74-4.54,1.7-6.95-.06-3.49-2.23-6.85-5.4-8.36-.09-.04-.2-.04-.29,0-3.18,1.51-5.35,4.87-5.4,8.36-.04,2.41,.85,4.72,1.7,6.95,.92,2.39,1.79,4.66,1.61,7.03-5.72-4.38-8.88-10.26-8.92-16.6,0-.18-.15-.33-.33-.34-.18,0-.34,.13-.35,.32-.11,1.83-1.62,3.56-3.66,4.21-1.76,.55-3.88,.35-5.99-.58-1.92-.85-3.63-2.16-5.28-3.43l-6.96-5.35c-.13-.1-.3-.09-.42,0-.12,.1-.16,.27-.09,.41,6.63,13.04,19.08,23.28,33.42,27.54-4.1,0-8.2,0-12.31,0-9.73-4.82-18.22-12.16-24.34-21.13-2.83-4.15-4.68-7.97-5.66-11.69-.83-3.17-1.45-7.95,.33-12.76,1.57-4.24,4.82-7.58,8.7-8.92,.14-.05,.23-.17,.23-.32s-.09-.27-.22-.32c-2.89-1.04-5.8-.72-8.15,.88,1.08-2.72,3.41-5.35,6.06-6.79,2.87-1.55,6.43-1.88,9.54-.88,.24,.08,.49,.16,.74,.25,1.49,.51,3.18,1.1,4.63,.29,1.27-.71,1.9-2.46,1.43-3.98-.4-1.31-1.53-2.44-3.02-3.02-1.14-.45-2.47-.61-4.2-.51-7.52,.44-14.73,5.08-18.82,12.1-3.69,6.34-4.81,14.53-3.07,22.48,1.42,6.53,4.76,13.11,9.67,19.12-13.45-6.08-28.63-10.5-46.34-13.5-8.3-1.4-19.18-2.72-29.8-.41-10.76,2.34-19.64,8.27-24.35,16.27-.07,.12-.06,.27,.02,.37,.08,.11,.22,.16,.35,.12,6.65-1.72,12.87-4.61,18.51-8.61-1.91,3.77-1.41,8.49,1.38,11.38,3.23,3.34,8.72,4.24,13.05,2.15,2.69-1.3,4.86-3.64,6.1-6.59,.06-.15,.01-.32-.12-.41-.13-.09-.31-.08-.42,.03-1.42,1.3-3.19,2.1-4.98,2.25-2.18,.18-4.36-.55-5.85-1.95-1.56-1.47-2.32-3.72-1.94-5.71,.36-1.88,1.92-3.59,4.07-4.46,2.22-.9,4.71-1.48,7.42-1.73,3.99-.37,7.99,.02,11.03,.4,7.3,.91,14.53,2.53,21.53,4.81-3.73,2.19-6.47,5.92-7.39,10.12-.03,.13,.02,.26,.13,.34,.11,.08,.25,.09,.36,.03,3.98-2.18,8.86-3.23,14.13-3.05,6.3,.22,12.47,2.16,17.14,3.82,7.3,2.59,14.39,5.79,21.18,9.52-5.17,.02-10.34,.04-15.52,.07-1.09-.53-2.15-1.09-3.15-1.64-.49-.27-.98-.54-1.47-.82-3.6-2-7.32-4.07-11.41-4.93-.11-.02-.23,.01-.31,.09-.08,.08-.11,.2-.09,.31,.52,2.41-.16,5.05-1.77,6.91-.06,.07-.12,.13-.18,.19-4.24,.03-8.47,.07-12.7,.1-1.28-3.11-3.65-5.9-6.69-7.75-3.89-2.37-8.83-3.32-13.92-2.67-4.33,.55-8.82,2.23-13.35,4.99-2.88,1.76-5.55,3.81-7.99,5.83-1.45,.01-2.91,.03-4.37,.04-.13-2.26-.82-4.49-2.03-6.4-1.74-2.75-4.53-4.83-7.67-5.7-2.63-.73-5.35-.59-7.64,.41-2.5,1.08-4.42,3.18-5.15,5.61-.65,2.15-.31,4.49,.83,6.29-3.66,.03-7.32,.07-10.96,.1,.34-2.62,.87-5.19,1.58-7.69,.49,.88,1.04,1.59,1.69,2.18Zm232.95,3.84c-.09-.36-.25-.69-.47-.96,.59,0,1.26,.22,1.64,.56,.41,.36,.69,.89,.81,1.48-.64,0-1.29-.01-1.93-.02,.06-.34,.04-.7-.04-1.06Zm3.52-3.8c-1.34-.92-3.09-1.29-4.8-1-1.27,.21-2.37,.75-3.18,1.55-.91,.9-1.4,2.14-1.31,3.32,.02,.32,.1,.63,.2,.93-2.26-.02-4.53-.04-6.8-.06,1.58-3.25,4.76-5.92,8.62-7.01,4.44-1.26,9.75-.6,14.95,1.86,3.08,1.46,5.91,3.39,8.62,5.46-4.36-.04-8.74-.09-13.13-.13-.44-2.07-1.55-3.81-3.16-4.92Zm31.48,1.06c1.3-2.37,3.66-4.12,6.3-4.68,1.66-.35,3.31-.21,4.63,.42,1.47,.69,2.56,2.02,2.83,3.46,.3,1.54-.39,3.19-1.64,3.94-1.06,.63-2.46,.6-3.49-.08-1.56-1.03-2.26-1.97-2.14-2.86,.02-.17-.09-.33-.26-.37-.17-.04-.34,.06-.4,.22-.46,1.36-.28,2.87,.37,4.17-2.46-.02-4.91-.05-7.36-.07,.06-1.44,.45-2.87,1.14-4.13Zm-249.11,.04c-.06-.16-.23-.26-.4-.22-.17,.04-.28,.2-.26,.37,.12,.89-.58,1.82-2.14,2.86-1.03,.68-2.43,.71-3.49,.08-1.25-.74-1.94-2.4-1.64-3.94,.28-1.44,1.37-2.76,2.83-3.46,1.32-.62,2.97-.77,4.63-.42,2.64,.56,5,2.31,6.3,4.68,.7,1.27,1.08,2.69,1.14,4.13-2.45,.02-4.9,.05-7.36,.07,.65-1.29,.83-2.8,.37-4.17Zm39.69,2.3c.38-.34,1.05-.55,1.64-.56-.22,.27-.38,.6-.47,.96-.09,.35-.1,.72-.04,1.06-.64,0-1.29,.01-1.93,.02,.12-.59,.41-1.12,.81-1.48Zm5.62-2.84c-.81-.8-1.91-1.34-3.18-1.55-1.71-.29-3.46,.07-4.8,1-1.61,1.11-2.72,2.85-3.16,4.92-4.39,.04-8.77,.09-13.13,.13,2.7-2.07,5.53-4,8.62-5.46,5.2-2.46,10.5-3.12,14.95-1.86,3.86,1.09,7.03,3.77,8.62,7.01-2.27,.02-4.54,.04-6.8,.06,.11-.3,.18-.61,.2-.93,.09-1.17-.4-2.42-1.31-3.32Z"/><path class="cls-1" d="M684.54,442.47c-.82-1.73-1.96-3.34-3.39-4.77-1.32-1.34-2.85-2.48-4.55-3.38-1.7-.94-3.81-1.56-5.66-1.65-1.14-.07-2.15-.05-3.12-.03-.65,.01-1.26,.02-1.9,0h-11.85c-10.19,0-20.73-.01-31.08-.08-12.87-.04-25.97-.16-38.2-.28-14.15-.12-28.53-.26-42.45-.41-36.17-.36-73.59-.74-110.36-.71-36.79-.04-74.19,.35-110.36,.71-13.91,.14-28.3,.29-42.45,.41-12.23,.12-25.33,.24-38.2,.28-10.35,.07-20.89,.07-31.08,.08h-11.86c-.63,.02-1.24,0-1.89,0-.97-.02-1.98-.04-3.11,.03-1.85,.09-3.97,.7-5.66,1.65-1.7,.91-3.24,2.05-4.55,3.38-1.43,1.44-2.57,3.04-3.39,4.77-.87,1.81-1.41,3.84-1.56,5.86-.31,4.22,.86,8.37,3.28,11.66,1.27,1.75,2.9,3.26,4.72,4.35,1.82,1.11,3.83,1.85,5.99,2.21,.93,.15,1.86,.22,2.76,.22,1.24,0,2.45-.14,3.62-.41,1.15-.28,2.15-.62,3.07-1.06,.92-.44,1.83-.99,2.74-1.67,3.41-2.61,5.55-6.56,5.72-10.57,.16-3.91-1.66-7.77-4.64-9.82-.12-.08-.25-.11-.39-.08-.14,.03-.26,.1-.34,.22-.1,.14-.12,.32-.06,.48,1.04,2.8,1.05,5.8,.05,8.21-.89,2.09-2.61,3.87-4.71,4.88-.9,.45-1.89,.72-2.99,.84-1.19,.08-2.22,0-3.15-.23-.49-.1-.99-.26-1.51-.47-.56-.22-1.02-.44-1.41-.68-.87-.5-1.65-1.14-2.4-1.97-1.52-1.68-2.54-3.9-2.8-6.1-.15-1.21-.08-2.37,.21-3.45,.34-1.22,.9-2.36,1.61-3.3,.73-.99,1.7-1.89,2.81-2.59,1.09-.69,2.09-1.03,3.36-1.14,.75-.05,1.62-.04,2.55-.02,.65,.01,1.32,.02,1.98,.01h11.92c10.19,0,20.73,.01,31.1,.08,12.43,.04,25.07,.15,36.94,.27,1.61,13.79,8.17,26.24,18.65,35.3,37.58,32.49,85.68,50.42,135.42,50.49,49.74-.07,97.83-18,135.41-50.49,10.48-9.06,17.03-21.51,18.65-35.3,11.87-.12,24.51-.23,36.94-.27,10.38-.07,20.91-.07,31.1-.08h11.91c.66,0,1.34,0,1.99-.02,.92-.02,1.8-.03,2.54,.02,1.27,.1,2.28,.44,3.37,1.14,1.11,.7,2.08,1.6,2.81,2.59,.71,.94,1.27,2.08,1.61,3.29,.29,1.09,.37,2.25,.21,3.46-.26,2.2-1.28,4.42-2.8,6.1-.75,.83-1.54,1.47-2.41,1.98-.39,.24-.85,.46-1.41,.68-.51,.21-1.02,.37-1.52,.47-.92,.23-1.95,.31-3.13,.23-1.12-.12-2.1-.4-3.01-.85-2.1-1.01-3.82-2.79-4.7-4.88-1.01-2.42-.99-5.41,.05-8.21,.06-.16,.04-.34-.06-.48-.08-.12-.2-.19-.34-.22-.14-.03-.28,0-.39,.08-2.98,2.06-4.8,5.91-4.64,9.82,.17,4.01,2.31,7.96,5.72,10.57,.9,.67,1.82,1.23,2.73,1.66,.92,.43,1.92,.78,3.07,1.06,2.02,.48,4.17,.54,6.38,.19,2.15-.36,4.17-1.1,5.98-2.2,1.81-1.09,3.45-2.6,4.72-4.35,2.43-3.3,3.59-7.44,3.28-11.67-.15-2.02-.69-4.05-1.56-5.86Zm-151.94,41.38c-.17,0-.3,.09-.34,.24-1.64,5.67-5.36,10.76-10.18,14.26-15.24,7.57-31.4,13.2-48.07,16.75,2.48-1.42,4.85-3.15,7.07-5.17,3.5-3.19,7.78-8.22,9.25-14.71,.92,2.68,3.73,5.79,7.63,7.24,3.96,1.48,11.83,2.3,20.11-8.88,1.51-2.04,3.94-3.49,6.49-3.9,.11-.02,.21-.09,.26-.2s.04-.23-.03-.32c-.38-.58-1.16-1.55-2.13-1.63-.73-.06-1.46,.17-2.03,.61-.47-.66-1.16-1.11-1.87-1.2-.79-.1-1.64,.07-2.48,.5h-.02c-.86-3.02-3.15-5.46-5.93-6.25-1.92-.55-4.08-.25-5.94,.82-1.71,.99-2.89,2.49-3.33,4.22-.21,.82-.24,1.66-.09,2.5,.03,.15,.16,.27,.31,.28,.15,0,.3-.09,.34-.24,.51-1.72,1.92-3.04,3.6-3.36,1.71-.33,3.58,.37,4.66,1.73,.99,1.26,1.35,3.11,.92,4.85-.49,1.99-1.79,3.43-2.79,4.29-.97,.83-2.49,1.82-4.24,1.76-1.4-.04-3.02-1-3.3-2.52-.02-.11-.1-.21-.2-.25-.11-.04-.23-.03-.32,.03-1.45,.97-3.3,.74-4.97-.61-1.75-1.42-2.43-3.61-2.69-5.2-.27-1.66-.23-3.4-.19-5.08,0-.36,.02-.72,.02-1.09,0-.54,.06-1.12,.12-1.8,.21-2.47,.5-5.82-.76-11.55,14.77,6.13,31.56,8.59,47.35,6.94,10.75-1.13,20.2-4.08,27.6-8.54-.62,.6-1.27,1.18-1.92,1.75-3.92,3.39-7.96,6.62-12.11,9.68-6.3,3.04-13.05,4.43-19.81,4.03Zm-100.31,30.65c-.12-.21-.47-.21-.59,0-1.21,2.14-3.04,3.88-5.19,4.97-4.13-.12-8.26-.36-12.36-.73,2.9-.76,5.63-1.95,8.05-3.57,4.7-3.13,8.21-7.84,9.79-13.08,1.57,5.24,5.09,9.95,9.79,13.08,2.42,1.61,5.15,2.81,8.05,3.57-4.1,.37-8.22,.61-12.35,.73-2.15-1.09-3.97-2.82-5.19-4.97Zm-90.37-16.15c-4.82-3.5-8.54-8.59-10.18-14.26-.04-.15-.19-.25-.34-.24-6.76,.4-13.51-.99-19.81-4.03-4.15-3.06-8.19-6.29-12.11-9.68-.66-.57-1.3-1.15-1.92-1.75,7.41,4.46,16.85,7.41,27.6,8.53,15.79,1.65,32.58-.81,47.35-6.94-1.25,5.73-.97,9.08-.76,11.55,.06,.68,.11,1.26,.12,1.8,0,.36,.01,.73,.02,1.09,.04,1.68,.08,3.41-.19,5.08-.26,1.59-.94,3.78-2.69,5.2-1.66,1.35-3.52,1.58-4.97,.61-.09-.06-.21-.08-.32-.03-.11,.04-.18,.14-.2,.25-.27,1.52-1.89,2.48-3.3,2.52-1.74,.05-3.27-.93-4.24-1.76-1-.86-2.3-2.31-2.79-4.29-.43-1.73-.07-3.59,.92-4.85,1.08-1.36,2.95-2.06,4.66-1.73,1.68,.32,3.09,1.64,3.6,3.36,.04,.15,.19,.25,.34,.24,.16,0,.29-.13,.31-.28,.14-.84,.11-1.68-.09-2.5-.43-1.73-1.62-3.23-3.33-4.22-1.85-1.07-4.01-1.37-5.93-.82-2.78,.79-5.06,3.23-5.93,6.26h-.02c-.84-.44-1.7-.61-2.48-.51-.71,.09-1.39,.54-1.87,1.2-.57-.45-1.3-.67-2.03-.61-.96,.08-1.75,1.06-2.13,1.63-.06,.1-.07,.22-.03,.32s.14,.18,.26,.2c2.56,.4,4.99,1.86,6.49,3.9,8.28,11.18,16.15,10.36,20.11,8.88,3.89-1.46,6.7-4.57,7.63-7.24,1.47,6.49,5.75,11.52,9.25,14.71,2.22,2.02,4.59,3.75,7.07,5.17-16.67-3.55-32.83-9.18-48.07-16.75Zm236.4-54.6c-.38-.35-.96-.62-1.52-.87-.54-.25-1.1-.51-1.33-.78-.12-.14-.33-.17-.48-.05-.14,.12-.17,.33-.05,.48,3.16,3.86,2.38,9.72-.02,13.51-2.79,4.41-7.51,7.16-11.31,9.05-12.42,6.2-26.3,8.97-40.14,8-15.52-1.09-28.66-5.27-39.05-12.43-.13-.09-.29-.08-.41,.02-.12,.1-.15,.27-.08,.4,.43,.9,.84,1.82,1.2,2.75,2.83,7.18,3.59,15.32,2.15,22.9-1.44,7.58-5.14,14.87-10.42,20.51-3.69,3.95-7.68,6.62-11.85,7.95-4.82,1.53-10,1.11-13.86-1.14-4.26-2.48-6.87-7.34-6.36-11.83,.02-.15-.07-.29-.2-.35-.14-.06-.3-.02-.39,.1-2.05,2.52-2.83,5.42-2.23,8.29-3.37-3.17-5.73-7.33-6.54-11.55-.82-4.29-.62-9.14,.57-14.41,.66-2.92,1.9-7.08,4.99-9.53,3.24-2.57,8.23-2.73,11.86-.39,3.49,2.25,5.58,6.53,5.32,10.92-.11,1.82-.61,3.45-1.44,4.72-.96,1.45-2.39,2.44-3.91,2.71-1.64,.29-3.36-.34-4.28-1.56-.96-1.28-.92-3.23,.09-4.33,.51-.56,1.31-.89,2.14-.89h.03c.77,0,1.47,.3,1.92,.81,.11,.13,.3,.15,.44,.06,.14-.09,.19-.28,.12-.43-.86-1.81-2.45-3.16-4.34-3.7-1.75-.5-3.54-.25-5.05,.72-3.19,2.05-4.47,6.69-2.85,10.34,1.51,3.43,5.24,5.79,9.27,5.87,.07,0,.15,0,.22,0,3.57,0,7.26-1.73,9.91-4.65,4.32-4.77,5.34-12.13,2.47-17.89-2.87-5.76-9.35-9.4-15.76-8.83-5.87,.52-11.59,4.59-14.58,10.36-.2,.38-.38,.76-.56,1.16-.18-.39-.36-.78-.56-1.16-2.99-5.78-8.71-9.84-14.58-10.36-6.41-.57-12.89,3.06-15.76,8.83-2.87,5.76-1.85,13.12,2.47,17.89,2.7,2.98,6.48,4.72,10.13,4.65,4.03-.08,7.76-2.44,9.27-5.87,1.61-3.66,.34-8.3-2.85-10.34-1.5-.96-3.29-1.22-5.05-.72-1.9,.54-3.48,1.89-4.34,3.7-.07,.15-.02,.33,.12,.43,.14,.09,.33,.07,.44-.06,.45-.51,1.15-.8,1.92-.81h.03c.83,0,1.63,.33,2.14,.89,1.02,1.11,1.06,3.05,.09,4.33-.92,1.22-2.64,1.85-4.28,1.56-1.53-.27-2.95-1.26-3.91-2.71-.84-1.26-1.34-2.9-1.44-4.72-.26-4.38,1.83-8.67,5.32-10.92,3.63-2.34,8.62-2.18,11.86,.39,3.09,2.45,4.33,6.61,4.99,9.53,1.2,5.28,1.39,10.13,.57,14.41-.8,4.22-3.17,8.37-6.54,11.55,.6-2.87-.17-5.77-2.23-8.29-.09-.12-.25-.16-.39-.1-.14,.06-.22,.2-.2,.35,.51,4.49-2.11,9.35-6.36,11.83-3.86,2.24-9.04,2.67-13.86,1.14-4.18-1.33-8.16-4-11.85-7.95-5.27-5.64-8.97-12.93-10.42-20.51-1.44-7.58-.68-15.72,2.15-22.9,.36-.93,.77-1.85,1.2-2.75,.07-.14,.03-.3-.08-.4-.12-.1-.29-.11-.41-.02-10.39,7.16-23.53,11.34-39.05,12.43-13.85,.97-27.73-1.79-40.14-8-3.8-1.9-8.52-4.64-11.31-9.05-2.4-3.79-3.18-9.65-.02-13.51,.12-.14,.1-.36-.05-.48s-.36-.1-.48,.05c-.23,.28-.79,.53-1.33,.78-.56,.26-1.14,.52-1.52,.87-.65,.6-1.2,1.3-1.69,2.18-.72-2.5-1.25-5.07-1.58-7.69,3.65,.03,7.3,.06,10.96,.1-1.14,1.8-1.48,4.14-.83,6.29,.73,2.44,2.66,4.54,5.15,5.62,1.33,.58,2.8,.87,4.31,.87,1.1,0,2.22-.15,3.33-.46,3.13-.87,5.93-2.95,7.67-5.7,1.21-1.91,1.9-4.14,2.03-6.4,1.46,.01,2.92,.03,4.37,.04,2.44,2.02,5.11,4.07,7.99,5.83,4.53,2.76,9.02,4.44,13.35,4.99,1.04,.13,2.08,.2,3.1,.2,3.97,0,7.73-.99,10.82-2.87,3.04-1.85,5.4-4.64,6.69-7.75,4.23,.04,8.46,.07,12.7,.1,.06,.06,.12,.12,.17,.19,1.61,1.86,2.29,4.51,1.77,6.91-.02,.11,0,.23,.09,.31,.06,.06,.15,.1,.24,.1,.02,0,.05,0,.07,0,4.09-.86,7.81-2.93,11.4-4.93,.49-.27,.98-.55,1.47-.82,1.01-.55,2.06-1.11,3.15-1.64,5.17,.03,10.35,.05,15.52,.07-6.79,3.74-13.88,6.93-21.18,9.52-4.67,1.66-10.84,3.6-17.14,3.82-5.26,.18-10.15-.87-14.13-3.05-.12-.06-.26-.05-.36,.03-.11,.08-.16,.21-.13,.34,.92,4.2,3.66,7.93,7.39,10.12-6.99,2.28-14.23,3.9-21.53,4.81-3.04,.38-7.04,.77-11.03,.4-2.7-.25-5.2-.83-7.42-1.73-2.14-.87-3.7-2.58-4.07-4.46-.39-2,.37-4.24,1.94-5.71,1.49-1.4,3.67-2.13,5.85-1.95,1.79,.15,3.56,.94,4.98,2.25,.12,.11,.29,.12,.42,.03,.13-.09,.18-.26,.12-.41-1.24-2.95-3.4-5.3-6.1-6.59-4.34-2.09-9.82-1.18-13.05,2.15-2.8,2.89-3.29,7.61-1.38,11.38-5.64-4-11.86-6.89-18.51-8.61-.13-.03-.27,.01-.35,.12-.08,.11-.09,.26-.02,.37,4.71,8.01,13.59,13.94,24.35,16.28,10.62,2.3,21.51,.99,29.8-.41,17.71-2.99,32.89-7.41,46.34-13.5-4.92,6.01-8.25,12.6-9.67,19.12-1.73,7.95-.61,16.15,3.07,22.48,4.09,7.02,11.3,11.66,18.82,12.1,.33,.02,.65,.03,.95,.03,1.28,0,2.33-.17,3.25-.53,1.49-.58,2.61-1.71,3.02-3.02,.47-1.52-.16-3.27-1.43-3.98-1.45-.81-3.14-.22-4.63,.29-.25,.09-.5,.17-.74,.25-3.1,1-6.67,.67-9.54-.88-2.65-1.43-4.98-4.07-6.06-6.79,2.36,1.6,5.27,1.93,8.15,.88,.13-.05,.22-.18,.22-.32,0-.14-.09-.27-.23-.32-3.87-1.34-7.12-4.68-8.7-8.92-1.78-4.81-1.16-9.59-.33-12.76,.98-3.72,2.83-7.55,5.66-11.69,6.12-8.97,14.61-16.31,24.34-21.13,4.11,0,8.21,0,12.31,0-14.33,4.26-26.79,14.5-33.42,27.54-.07,.14-.04,.31,.09,.41,.12,.1,.3,.1,.42,0l6.96-5.35c1.65-1.27,3.36-2.58,5.28-3.43,2.11-.93,4.23-1.14,5.99-.58,2.07,.66,3.55,2.35,3.66,4.21,.01,.18,.16,.32,.35,.32,.18,0,.33-.15,.33-.34,.04-6.35,3.2-12.22,8.92-16.6,.18,2.36-.69,4.63-1.61,7.03-.86,2.23-1.74,4.54-1.7,6.95,.05,3.49,2.23,6.85,5.4,8.36,.05,.02,.1,.03,.14,.03s.1-.01,.14-.03c3.18-1.51,5.35-4.87,5.4-8.36,.04-2.41-.85-4.72-1.7-6.95-.92-2.39-1.79-4.66-1.61-7.03,5.72,4.38,8.88,10.25,8.92,16.6,0,.18,.15,.33,.33,.34h0c.18,0,.33-.14,.34-.32,.12-1.86,1.59-3.55,3.66-4.21,1.76-.56,3.88-.35,5.99,.58,1.92,.85,3.63,2.16,5.28,3.43l6.96,5.35c.13,.1,.3,.09,.42,0,.12-.1,.16-.27,.09-.41-6.63-13.04-19.08-23.28-33.42-27.54,4.1,0,8.2,0,12.31,0,9.73,4.82,18.22,12.16,24.34,21.13,2.83,4.15,4.68,7.97,5.66,11.69,.83,3.17,1.45,7.95-.33,12.76-1.57,4.24-4.82,7.58-8.7,8.92-.14,.05-.23,.17-.23,.32,0,.14,.09,.27,.22,.32,2.89,1.04,5.8,.72,8.15-.88-1.08,2.72-3.41,5.35-6.06,6.79-2.87,1.55-6.43,1.88-9.54,.88-.24-.08-.49-.16-.74-.25-1.49-.51-3.18-1.1-4.63-.29-1.27,.71-1.9,2.46-1.43,3.98,.4,1.31,1.53,2.44,3.02,3.02,.92,.36,1.97,.53,3.25,.53,.3,0,.62,0,.95-.03,7.52-.44,14.73-5.07,18.82-12.1,3.69-6.34,4.81-14.53,3.08-22.48-1.42-6.53-4.76-13.11-9.67-19.12,13.45,6.08,28.63,10.5,46.34,13.5,8.3,1.4,19.18,2.72,29.8,.41,10.76-2.34,19.64-8.27,24.35-16.28,.07-.12,.06-.27-.02-.37-.08-.11-.22-.16-.35-.12-6.65,1.72-12.87,4.61-18.51,8.61,1.91-3.77,1.41-8.49-1.38-11.38-3.23-3.33-8.72-4.24-13.05-2.15-2.69,1.3-4.86,3.64-6.1,6.59-.06,.15-.01,.32,.12,.41s.31,.08,.42-.03c1.42-1.3,3.19-2.1,4.98-2.25,2.18-.18,4.36,.55,5.85,1.95,1.56,1.47,2.32,3.72,1.94,5.71-.36,1.88-1.92,3.59-4.07,4.46-2.22,.9-4.71,1.48-7.42,1.73-3.99,.37-7.99-.02-11.03-.4-7.3-.91-14.53-2.53-21.53-4.81,3.73-2.19,6.47-5.92,7.39-10.12,.03-.13-.02-.26-.13-.34-.11-.08-.25-.09-.36-.03-3.98,2.18-8.86,3.23-14.13,3.05-6.3-.22-12.47-2.16-17.14-3.82-7.3-2.59-14.39-5.79-21.18-9.52,5.17-.02,10.34-.04,15.52-.07,1.09,.53,2.14,1.09,3.15,1.64,.49,.27,.98,.54,1.47,.82,3.6,2,7.32,4.07,11.4,4.93,.02,0,.05,0,.07,0,.09,0,.18-.04,.24-.1,.08-.08,.11-.2,.09-.31-.52-2.41,.16-5.05,1.77-6.91,.06-.07,.12-.13,.18-.19,4.24-.03,8.47-.07,12.7-.1,1.28,3.1,3.65,5.9,6.69,7.75,3.09,1.88,6.85,2.87,10.82,2.87,1.02,0,2.06-.07,3.1-.2,4.33-.55,8.82-2.23,13.35-4.99,2.88-1.76,5.55-3.81,7.99-5.83,1.45-.01,2.91-.03,4.37-.04,.13,2.26,.82,4.49,2.03,6.4,1.74,2.75,4.53,4.83,7.67,5.7,1.11,.31,2.23,.46,3.33,.46,1.51,0,2.98-.29,4.31-.87,2.49-1.08,4.42-3.18,5.15-5.62,.65-2.15,.31-4.49-.83-6.29,3.66-.03,7.32-.07,10.96-.1-.34,2.62-.87,5.19-1.58,7.69-.49-.88-1.04-1.59-1.69-2.18Zm-232.95-3.84c.09,.36,.25,.69,.47,.96-.59,0-1.25-.22-1.64-.56-.41-.36-.69-.89-.81-1.48,.64,0,1.29,.01,1.93,.02-.06,.34-.04,.7,.04,1.06Zm-3.52,3.8c1.03,.71,2.32,1.09,3.64,1.09,.38,0,.77-.03,1.16-.1,1.27-.21,2.37-.75,3.18-1.55,.91-.9,1.4-2.14,1.31-3.32-.02-.32-.09-.63-.2-.93,2.26,.02,4.53,.04,6.8,.06-1.58,3.25-4.76,5.92-8.61,7.01-4.44,1.26-9.75,.6-14.95-1.86-3.08-1.46-5.91-3.39-8.61-5.46,4.36,.04,8.74,.09,13.13,.13,.44,2.07,1.55,3.81,3.16,4.92Zm-31.48-1.06c-1.3,2.37-3.66,4.12-6.3,4.68-1.66,.35-3.31,.21-4.63-.42-1.47-.69-2.56-2.02-2.83-3.46-.3-1.54,.39-3.19,1.64-3.94,1.06-.63,2.46-.6,3.49,.08,1.56,1.03,2.26,1.97,2.14,2.86-.02,.17,.09,.33,.26,.37,.17,.04,.34-.06,.4-.22,.46-1.36,.28-2.87-.37-4.17,2.46,.02,4.92,.05,7.36,.07-.06,1.44-.45,2.87-1.14,4.13Zm249.11-.04c.06,.17,.23,.26,.4,.22,.17-.04,.28-.2,.26-.37-.12-.89,.58-1.83,2.14-2.86,1.03-.68,2.43-.71,3.49-.08,1.25,.74,1.94,2.4,1.64,3.94-.28,1.44-1.37,2.76-2.83,3.46-1.32,.62-2.97,.77-4.63,.42-2.64-.56-5-2.31-6.3-4.68-.7-1.27-1.08-2.69-1.14-4.13,2.45-.02,4.9-.05,7.36-.07-.65,1.29-.83,2.8-.37,4.17Zm-39.69-2.3c-.38,.34-1.05,.55-1.64,.56,.22-.27,.38-.6,.47-.96,.09-.35,.1-.72,.04-1.06,.64,0,1.29-.01,1.93-.02-.12,.59-.41,1.12-.81,1.48Zm-5.62,2.84c.81,.8,1.91,1.34,3.18,1.55,.39,.07,.77,.1,1.16,.1,1.32,0,2.61-.38,3.64-1.09,1.61-1.11,2.72-2.85,3.16-4.92,4.39-.04,8.77-.09,13.13-.13-2.7,2.07-5.53,4-8.62,5.46-5.2,2.46-10.5,3.12-14.95,1.86-3.86-1.09-7.03-3.77-8.62-7.01,2.27-.02,4.54-.04,6.8-.06-.11,.3-.18,.61-.2,.93-.09,1.17,.4,2.42,1.31,3.32Z"/><path class="cls-1" d="M255.98,208.19c.5,1.04,.89,2.14,1.17,3.28,.03,.12,.12,.21,.23,.24,.11,.03,.24,0,.33-.07,47.77-43.45,109.67-67.43,174.29-67.51,64.63,.08,126.52,24.05,174.3,67.51,.06,.06,.14,.09,.23,.09,.03,0,.07,0,.1-.01,.11-.03,.2-.13,.23-.24,.28-1.14,.67-2.24,1.17-3.28,.07-.15,.14-.29,.22-.44,.07-.14,.04-.3-.08-.41-6.53-5.83-9.68-15.15-8.03-23.75,.03-.14-.04-.28-.16-.36-.12-.07-.28-.06-.39,.04-3.44,2.96-5.53,7.6-5.54,12.24-22.85-17.83-48.3-31.69-75.67-41.2-6.12-2.13-12.31-4.03-18.55-5.69-1.36-.4-2.75-.78-4.1-1.15-3.19-.87-6.5-1.77-9.58-3.04-2.63-1.08-5.4-2.31-7.87-3.98-2.96-2-4.87-3.96-6.01-6.15-.06-.11-.17-.18-.29-.18-.12,0-.24,.06-.3,.16-1.88,3.06-5.47,5.27-9.86,6.08-2.21,.41-4.46,.47-6.71,.37-1.78-.16-3.56-.3-5.35-.42h-.03c-5.88-.4-11.79-.61-17.72-.62h-.04c-5.93,0-11.84,.21-17.72,.61h-.03c-1.78,.12-3.57,.26-5.34,.42-2.24,.09-4.5,.04-6.71-.37-4.39-.81-7.98-3.03-9.86-6.08-.06-.1-.17-.16-.3-.16-.12,0-.23,.07-.29,.18-1.14,2.19-3.05,4.15-6.01,6.15-2.47,1.67-5.24,2.9-7.87,3.98-3.08,1.27-6.38,2.17-9.58,3.04-1.35,.37-2.74,.75-4.1,1.15-6.24,1.67-12.42,3.56-18.55,5.69-27.37,9.51-52.82,23.37-75.67,41.2,0-4.64-2.09-9.27-5.54-12.24-.11-.09-.27-.11-.39-.04-.12,.07-.19,.21-.16,.36,1.65,8.6-1.5,17.92-8.03,23.75-.11,.1-.15,.27-.08,.41,.07,.14,.15,.29,.22,.44Z"/><path class="cls-1" d="M608.02,511.81c-.5-1.04-.89-2.14-1.17-3.28-.03-.12-.12-.21-.23-.24-.11-.04-.24,0-.33,.07-47.77,43.45-109.67,67.43-174.29,67.51-64.63-.08-126.52-24.05-174.3-67.51-.09-.08-.21-.11-.33-.07-.11,.03-.2,.13-.23,.24-.28,1.14-.67,2.24-1.17,3.28-.07,.15-.14,.29-.22,.44-.07,.14-.04,.3,.08,.41,6.53,5.83,9.68,15.15,8.03,23.75-.03,.14,.04,.28,.16,.36,.12,.07,.28,.06,.39-.04,3.45-2.96,5.53-7.6,5.54-12.24,22.85,17.83,48.3,31.69,75.67,41.2,6.12,2.13,12.31,4.03,18.55,5.69,1.36,.4,2.75,.78,4.1,1.15,3.19,.87,6.5,1.77,9.58,3.04,2.63,1.08,5.4,2.31,7.87,3.98,2.96,2,4.87,3.96,6.01,6.15,.06,.11,.17,.18,.29,.18h.01c.12,0,.23-.06,.29-.16,1.88-3.06,5.47-5.27,9.86-6.08,2.21-.41,4.46-.47,6.71-.37,1.78,.16,3.56,.3,5.35,.42h.02c5.88,.4,11.79,.61,17.72,.62h.04c5.93,0,11.84-.21,17.72-.61h.02c1.79-.12,3.57-.26,5.35-.42,2.24-.09,4.49-.04,6.7,.37,4.39,.81,7.98,3.03,9.86,6.08,.06,.1,.17,.16,.29,.16h.01c.12,0,.23-.07,.29-.18,1.14-2.19,3.05-4.15,6.01-6.15,2.47-1.67,5.24-2.9,7.87-3.98,3.08-1.27,6.39-2.17,9.58-3.04,1.35-.37,2.74-.75,4.1-1.15,6.24-1.67,12.42-3.56,18.54-5.69,27.37-9.51,52.82-23.37,75.67-41.2,0,4.64,2.09,9.27,5.54,12.24,.11,.09,.27,.11,.39,.04,.12-.07,.19-.21,.16-.36-1.65-8.6,1.5-17.92,8.03-23.75,.11-.1,.15-.27,.08-.41-.07-.14-.15-.29-.22-.44Zm-176,68.15h0Z"/><path class="cls-1" d="M274.97,251.42c-.13-.89-.61-1.79-1.43-2.67-.37-.4-.78-.76-1.18-1.12-.31-.28-.63-.56-.92-.85-2.05-2.05-3.3-5.23-3.18-8.08,0-.17-.11-.32-.28-.35-.17-.03-.33,.07-.38,.23l-.02,.07c-.1,.32-.2,.62-.24,.89-.72,4.02-.19,8.23,1.49,11.86,.4,.86,.92,1.83,1.79,2.48,.51,.38,1.21,.66,1.92,.66,.41,0,.82-.09,1.2-.31,.89-.51,1.39-1.67,1.22-2.82Z"/><path class="cls-1" d="M589.03,468.58c.13,.89,.61,1.79,1.43,2.67,.37,.4,.78,.76,1.18,1.12,.31,.28,.63,.56,.92,.85,2.05,2.05,3.3,5.23,3.18,8.08,0,.17,.11,.32,.28,.35,.02,0,.04,0,.06,0,.15,0,.28-.09,.32-.24l.02-.07c.1-.32,.19-.62,.24-.89,.72-4.02,.19-8.23-1.49-11.86-.4-.86-.92-1.83-1.79-2.48-.8-.61-2.08-.95-3.12-.35-.89,.51-1.39,1.67-1.22,2.82Z"/><path class="cls-1" d="M591.63,247.64c-.39,.35-.8,.72-1.18,1.12-.82,.88-1.3,1.77-1.43,2.67-.16,1.15,.34,2.31,1.22,2.82,.38,.22,.79,.31,1.2,.31,.71,0,1.41-.28,1.92-.66,.87-.66,1.39-1.62,1.79-2.48,1.68-3.63,2.21-7.85,1.49-11.86-.05-.27-.14-.57-.24-.89l-.02-.07c-.05-.16-.21-.26-.38-.23-.17,.03-.29,.18-.28,.35,.12,2.86-1.13,6.03-3.18,8.08-.29,.29-.61,.58-.92,.85Z"/><path class="cls-1" d="M272.37,472.36c.4-.35,.8-.72,1.18-1.12,.82-.88,1.3-1.77,1.43-2.67,.16-1.15-.34-2.31-1.22-2.82-1.04-.6-2.31-.26-3.12,.35-.87,.66-1.4,1.62-1.79,2.48-1.68,3.63-2.21,7.85-1.49,11.86,.05,.27,.14,.57,.24,.9l.02,.07c.04,.14,.18,.24,.32,.24,.02,0,.04,0,.06,0,.17-.03,.29-.18,.28-.35-.12-2.86,1.13-6.03,3.18-8.08,.29-.29,.61-.58,.92-.85Z"/><path class="cls-1" d="M247.54,271.43c-.87-1.48-1.33-2.76-1.42-3.94-.01-.16-.14-.29-.3-.31-.16-.02-.31,.08-.36,.23-.25,.77-.45,1.49-.61,2.19-.64,2.88-.53,5.59,.33,7.82,.47,1.22,1.09,2.03,1.89,2.49,.39,.22,.86,.34,1.33,.34,.68,0,1.36-.25,1.78-.84,.45-.62,.53-1.48,.24-2.54-.41-1.52-1.26-2.87-2.08-4.17-.26-.42-.54-.85-.79-1.28Z"/><path class="cls-1" d="M616.46,448.57c.87,1.48,1.33,2.76,1.42,3.94,.01,.16,.14,.29,.3,.31,.01,0,.03,0,.04,0,.14,0,.27-.09,.32-.23,.25-.77,.45-1.49,.61-2.19,.64-2.88,.53-5.59-.33-7.82-.47-1.22-1.09-2.03-1.89-2.49-.94-.53-2.4-.5-3.11,.49-.45,.62-.53,1.48-.24,2.54,.41,1.52,1.26,2.87,2.08,4.17,.26,.42,.54,.85,.79,1.28Z"/><path class="cls-1" d="M618.18,267.19c-.16,.02-.28,.15-.3,.31-.09,1.17-.55,2.46-1.42,3.94-.25,.43-.52,.86-.79,1.28-.82,1.3-1.67,2.65-2.08,4.17-.29,1.07-.21,1.92,.24,2.54,.42,.58,1.1,.84,1.78,.84,.47,0,.95-.12,1.33-.34,.8-.46,1.42-1.27,1.89-2.49,.86-2.23,.97-4.93,.33-7.82-.16-.71-.36-1.43-.61-2.19-.05-.15-.2-.25-.36-.23Z"/><path class="cls-1" d="M245.78,452.82s.03,0,.04,0c.16-.02,.28-.15,.3-.31,.09-1.17,.55-2.46,1.42-3.94,.25-.43,.52-.86,.79-1.28,.82-1.3,1.67-2.65,2.08-4.17,.29-1.07,.21-1.92-.24-2.54-.71-.99-2.17-1.03-3.11-.49-.8,.46-1.42,1.27-1.89,2.49-.86,2.23-.97,4.94-.33,7.82,.16,.71,.36,1.42,.61,2.19,.05,.14,.18,.23,.32,.23Z"/><path class="cls-1" d="M238.99,268.86c-.18-.05-.36,.04-.44,.2-1.21,2.53-1.69,5.63-1.31,8.5,.16,1.2,.7,2.48,1.72,2.48h0c.79,0,1.35-.82,1.49-1.63,.13-.75,0-1.5-.16-2.21-.09-.42-.19-.83-.28-1.25-.36-1.55-.73-3.16-.77-4.77,0-.31,0-.63,.02-.94,.01-.18-.11-.35-.28-.39Z"/><path class="cls-1" d="M625.01,451.14s.06,.01,.1,.01c.14,0,.28-.08,.34-.22,1.21-2.53,1.69-5.63,1.31-8.5-.16-1.2-.7-2.48-1.72-2.48h0c-.79,0-1.35,.82-1.49,1.63-.13,.75,0,1.5,.16,2.21,.09,.42,.19,.83,.28,1.25,.36,1.55,.73,3.16,.77,4.77,0,.31,0,.63-.02,.94-.01,.18,.11,.35,.28,.39Z"/><path class="cls-1" d="M623.97,274.97c-.1,.42-.19,.83-.28,1.25-.15,.71-.29,1.46-.16,2.21,.14,.81,.7,1.63,1.49,1.63h0c1.02,0,1.56-1.28,1.72-2.48,.38-2.88-.09-5.97-1.31-8.5-.08-.16-.26-.25-.44-.2-.18,.05-.29,.21-.28,.39,.02,.31,.03,.63,.02,.94-.04,1.62-.41,3.22-.77,4.77Z"/><path class="cls-1" d="M240.02,445.04c.1-.42,.19-.83,.28-1.25,.15-.71,.29-1.46,.16-2.21-.14-.81-.7-1.63-1.49-1.63h0c-1.02,0-1.56,1.28-1.72,2.48-.38,2.88,.09,5.97,1.31,8.5,.06,.13,.2,.22,.34,.22,.03,0,.06,0,.1-.01,.18-.05,.29-.21,.28-.39-.02-.31-.03-.63-.02-.94,.04-1.62,.41-3.22,.77-4.77Z"/><path class="cls-1" d="M230.93,271.08c-.15-.05-.31,.01-.39,.15-1.22,2.02-1.7,4.5-1.32,6.8,.15,.91,.69,1.98,1.68,1.98h0c.75,0,1.31-.67,1.45-1.31,.14-.61,0-1.22-.16-1.79-.09-.33-.19-.66-.28-.99-.36-1.22-.73-2.49-.77-3.76,0-.24,0-.49,.02-.73,.01-.16-.08-.3-.23-.35Z"/><path class="cls-1" d="M633.07,448.92s.07,.02,.11,.02c.12,0,.23-.06,.29-.16,1.22-2.02,1.7-4.5,1.32-6.8-.15-.91-.69-1.98-1.68-1.98h0c-.75,0-1.31,.67-1.45,1.31-.14,.61,0,1.22,.16,1.79,.09,.33,.19,.66,.28,.99,.36,1.22,.73,2.49,.77,3.76,0,.24,0,.49-.02,.73-.01,.16,.08,.3,.23,.35Z"/><path class="cls-1" d="M632.09,275.92c-.1,.33-.19,.66-.28,.99-.16,.57-.3,1.18-.16,1.79,.14,.63,.7,1.31,1.45,1.31h0c.99,0,1.52-1.07,1.68-1.98,.39-2.3-.09-4.78-1.32-6.8-.08-.13-.25-.19-.39-.15-.15,.05-.25,.19-.23,.35,.02,.24,.03,.49,.02,.73-.04,1.27-.41,2.53-.77,3.76Z"/><path class="cls-1" d="M231.91,444.08c.1-.33,.19-.66,.28-.99,.16-.57,.3-1.18,.16-1.79-.14-.63-.7-1.31-1.45-1.31h0c-.99,0-1.52,1.07-1.68,1.98-.39,2.3,.09,4.78,1.32,6.8,.06,.1,.17,.16,.29,.16,.03,0,.07,0,.11-.02,.15-.05,.25-.19,.23-.35-.02-.24-.03-.49-.02-.73,.04-1.27,.41-2.53,.77-3.76Z"/><path class="cls-1" d="M315.54,161.76s.1-.01,.15-.03c5.12-2.46,10.39-4.79,15.66-6.93,12.12-4.92,24.66-8.97,37.26-12.05,4.77-1.16,9.07-3.43,12.44-6.55l.07-.06c1.72-1.6,3.05-3.14,4.06-4.71,2.26-3.5,3-7.4,2.02-10.7-1.33-4.46-5.99-7.58-10.61-7.1-4.62,.48-8.55,4.48-8.94,9.11-.23,2.79,.82,5.41,2.77,6.83,2.03,1.48,5.56,1.51,7.25-.68,.08-.1,.09-.24,.03-.36-.06-.12-.18-.18-.31-.19-.97,.02-1.94-.42-2.68-1.21-.78-.83-1.19-1.94-1.1-2.97,.18-2.06,2.21-3.86,4.36-3.86h.02c2.11,.01,4.14,1.64,4.7,3.77,.36,1.36,.19,2.94-.49,4.44-.61,1.35-1.59,2.64-3.08,4.07-2.43,2.31-5.46,4.08-8.77,5.14-5.91,1.89-11.49,3.67-14.62,2.2-2.04-.96-3.54-3.03-3.81-5.27-.02-.13-.11-.24-.23-.28-.12-.04-.26,0-.35,.09-1.35,1.44-2.02,3.46-1.8,5.42,.13,1.14,.58,2.27,1.27,3.22-4.96,1.55-9.95,3.28-14.82,5.12-2.31,.87-4.99,.46-6.83-1.04-2.31-1.89-3.12-5.37-1.88-8.08,.24-.52,.54-1,.9-1.43,1.01-1.2,2.41-1.94,3.97-2.1,1.22-.13,2.43,.23,3.4,.99,.76,.6,1.25,1.46,1.38,2.42,.1,.75-.09,1.5-.54,2.11-.35,.47-.86,.79-1.44,.88-.15,.03-.27,.15-.28,.3-.01,.15,.08,.3,.22,.35,2.63,.95,4.99,.17,6.49-2.14,.44-.68,.76-1.48,.92-2.32,.88-4.67-2.59-8.25-6.3-9.23-2.31-.62-4.93-.39-7.36,.64-3.2,1.36-5.84,4.05-7.05,7.22-1.26,3.28-1.02,7.04,.64,10.04,.7,1.27,1.69,2.43,2.86,3.36-1.69,4.3-4.37,6.52-8.38,9.85-.44,.36-.9,.74-1.37,1.14-.13,.11-.16,.3-.07,.44,.06,.1,.17,.15,.28,.15Z"/><path class="cls-1" d="M548.31,558.27c-5.12,2.46-10.39,4.79-15.66,6.93-12.12,4.92-24.66,8.97-37.26,12.05-4.77,1.16-9.07,3.43-12.44,6.55l-.07,.06c-1.72,1.6-3.05,3.14-4.06,4.71-2.26,3.5-3,7.4-2.02,10.7,1.24,4.15,5.37,7.15,9.67,7.15,.31,0,.63-.02,.94-.05,4.63-.48,8.55-4.48,8.94-9.11,.24-2.79-.82-5.41-2.77-6.83-2.03-1.49-5.56-1.51-7.25,.68-.08,.1-.09,.24-.03,.36,.06,.12,.18,.19,.31,.19,.02,0,.04,0,.06,0,.94,0,1.89,.44,2.62,1.21,.78,.83,1.19,1.94,1.1,2.97-.18,2.06-2.21,3.86-4.36,3.86h-.02c-2.11-.01-4.14-1.63-4.7-3.77-.36-1.36-.19-2.94,.49-4.44,.61-1.35,1.59-2.64,3.08-4.07,2.43-2.31,5.46-4.08,8.77-5.14,5.91-1.89,11.49-3.67,14.62-2.2,2.04,.96,3.54,3.03,3.81,5.27,.02,.13,.11,.24,.23,.28,.13,.04,.26,0,.35-.09,1.35-1.44,2.02-3.46,1.8-5.42-.13-1.14-.58-2.27-1.27-3.22,4.96-1.55,9.94-3.27,14.82-5.12,2.31-.87,4.99-.46,6.83,1.04,2.31,1.89,3.12,5.37,1.88,8.08-.24,.52-.54,1-.9,1.43-1.01,1.2-2.42,1.94-3.97,2.1-1.22,.12-2.43-.23-3.4-.99-.76-.6-1.25-1.46-1.38-2.42-.1-.75,.09-1.5,.54-2.11,.35-.47,.86-.79,1.44-.88,.15-.03,.27-.15,.28-.3,.01-.15-.08-.3-.22-.35-2.63-.95-4.99-.16-6.49,2.14-.44,.68-.76,1.48-.92,2.32-.88,4.67,2.59,8.25,6.3,9.23,2.31,.62,4.93,.39,7.36-.64,3.2-1.36,5.84-4.05,7.05-7.22,1.26-3.28,1.02-7.04-.64-10.04-.7-1.28-1.69-2.43-2.86-3.36,1.69-4.3,4.36-6.52,8.38-9.85,.44-.36,.9-.74,1.37-1.14,.13-.11,.16-.3,.07-.44-.09-.14-.28-.2-.43-.12Z"/><path class="cls-1" d="M482.88,136.13l.07,.06c3.37,3.12,7.67,5.39,12.44,6.55,12.61,3.08,25.14,7.13,37.26,12.05,5.27,2.14,10.54,4.47,15.66,6.93,.05,.02,.1,.03,.15,.03,.11,0,.22-.06,.28-.15,.09-.14,.06-.33-.07-.44-.47-.39-.93-.77-1.37-1.14-4.02-3.33-6.7-5.55-8.38-9.85,1.17-.93,2.15-2.09,2.86-3.36,1.66-3.01,1.9-6.76,.64-10.04-1.21-3.16-3.85-5.86-7.05-7.22-2.43-1.03-5.04-1.26-7.36-.64-3.71,.99-7.18,4.56-6.3,9.23,.16,.83,.47,1.64,.92,2.32,1.49,2.31,3.86,3.09,6.49,2.14,.14-.05,.24-.2,.22-.35-.01-.15-.13-.28-.28-.3-.58-.1-1.09-.41-1.44-.88-.45-.61-.64-1.36-.54-2.11,.13-.96,.62-1.82,1.38-2.42,.97-.76,2.18-1.11,3.4-.99,1.55,.16,2.96,.9,3.97,2.1,.36,.43,.66,.91,.9,1.43,1.23,2.72,.42,6.19-1.88,8.08-1.84,1.51-4.52,1.92-6.83,1.04-4.88-1.84-9.86-3.56-14.82-5.12,.69-.95,1.14-2.08,1.27-3.22,.23-1.96-.45-3.99-1.8-5.42-.09-.1-.23-.13-.35-.09-.12,.04-.21,.15-.23,.28-.27,2.24-1.77,4.31-3.81,5.27-3.12,1.47-8.7-.31-14.62-2.2-3.31-1.06-6.35-2.84-8.77-5.14-1.5-1.42-2.48-2.71-3.08-4.07-.68-1.5-.85-3.08-.49-4.44,.57-2.14,2.59-3.76,4.7-3.77h.02c2.15,0,4.18,1.8,4.36,3.86,.09,1.03-.32,2.14-1.1,2.97-.74,.79-1.73,1.23-2.68,1.21-.13,0-.25,.07-.31,.19-.06,.12-.05,.26,.03,.36,1.7,2.19,5.23,2.17,7.25,.68,1.94-1.42,3-4.04,2.77-6.83-.39-4.63-4.32-8.63-8.94-9.11-4.62-.48-9.29,2.64-10.61,7.1-.98,3.29-.24,7.19,2.02,10.7,1.01,1.57,2.34,3.11,4.06,4.71Z"/><path class="cls-1" d="M381.12,583.87l-.07-.06c-3.37-3.12-7.67-5.39-12.44-6.55-12.61-3.08-25.15-7.13-37.26-12.05-5.27-2.14-10.54-4.47-15.66-6.93-.15-.07-.34-.02-.43,.12-.09,.14-.06,.33,.07,.44,.47,.39,.93,.77,1.37,1.14,4.02,3.33,6.7,5.55,8.38,9.85-1.17,.93-2.15,2.09-2.86,3.36-1.66,3.01-1.9,6.76-.64,10.04,1.21,3.16,3.85,5.86,7.05,7.22,2.43,1.03,5.04,1.26,7.36,.64,3.71-.99,7.18-4.56,6.3-9.23-.16-.83-.47-1.64-.92-2.32-1.49-2.31-3.86-3.09-6.49-2.14-.14,.05-.24,.2-.22,.35,.01,.15,.13,.28,.28,.3,.58,.1,1.09,.41,1.44,.88,.45,.61,.64,1.36,.54,2.11-.13,.96-.62,1.82-1.38,2.42-.97,.76-2.18,1.11-3.4,.99-1.55-.16-2.96-.9-3.97-2.1-.36-.43-.67-.91-.9-1.43-1.23-2.72-.42-6.19,1.88-8.08,1.84-1.51,4.52-1.92,6.83-1.04,4.88,1.84,9.86,3.56,14.82,5.12-.69,.95-1.14,2.08-1.27,3.22-.23,1.96,.45,3.99,1.8,5.42,.09,.1,.23,.13,.35,.09,.12-.04,.21-.15,.23-.28,.27-2.24,1.77-4.31,3.81-5.27,3.12-1.47,8.7,.31,14.62,2.2,3.31,1.06,6.35,2.83,8.77,5.14,1.5,1.42,2.48,2.71,3.08,4.07,.68,1.5,.85,3.08,.49,4.44-.57,2.14-2.59,3.76-4.7,3.77h-.02c-2.15,0-4.18-1.8-4.36-3.86-.09-1.03,.32-2.14,1.1-2.97,.74-.79,1.72-1.25,2.68-1.21,.13,0,.25-.07,.31-.19,.06-.12,.05-.26-.03-.36-1.7-2.19-5.23-2.17-7.25-.68-1.94,1.42-3,4.04-2.77,6.83,.39,4.63,4.32,8.63,8.94,9.11,.31,.03,.63,.05,.94,.05,4.3,0,8.44-2.99,9.67-7.15,.98-3.29,.24-7.19-2.02-10.7-1.01-1.57-2.34-3.11-4.06-4.71Z"/><path class="cls-1" d="M401.54,135.6c1.33,.49,2.82,.75,4.56,.79h.04c4.98-.48,10.06-.83,15.09-1.04,.95-.04,1.75-.64,2.01-1.51,.08-.26,.12-.53,.12-.83,0-.55-.23-1.07-.65-1.46-.44-.42-1.05-.65-1.66-.63-4.4,.18-8.85,.47-13.22,.86-1.36,.11-2.84-.4-4.16-1.42-2.37-1.83-3.43-5.9-2.25-8.7,1.39-3.32,5.31-5.23,9.12-4.44,2.43,.51,5.02,2.23,5.02,5.53,0,.73-.15,1.43-.44,2.1-.82,1.86-2.16,3.12-3.59,3.37-.15,.02-.26,.14-.28,.29s.06,.29,.19,.35c.68,.31,1.43,.47,2.17,.46,1.62-.02,3.14-.67,4.29-1.81,1.42-1.41,2.21-3.29,2.25-5.3,.04-2.48-.87-4.84-2.57-6.65-2.11-2.24-4.96-3.56-8.03-3.71-3.82-.18-7.5,1.11-10.37,3.64-1.12,.99-2.06,2.12-2.79,3.36-1.71,2.92-2.2,6.51-1.31,9.61,.94,3.27,3.43,6.01,6.49,7.14Z"/><path class="cls-1" d="M462.46,584.4c-1.33-.49-2.82-.75-4.56-.79-.01,0-.03,0-.04,0-4.99,.48-10.07,.83-15.09,1.04-.95,.04-1.75,.64-2.01,1.51-.08,.26-.12,.53-.12,.83,0,.55,.23,1.07,.65,1.46,.44,.42,1.05,.65,1.66,.63,4.4-.18,8.85-.47,13.22-.86h0c1.36-.1,2.84,.4,4.15,1.42,2.37,1.83,3.43,5.9,2.25,8.7-1.39,3.33-5.31,5.24-9.12,4.44-2.43-.51-5.02-2.22-5.02-5.53,0-.73,.15-1.43,.44-2.1,.82-1.86,2.16-3.12,3.59-3.37,.15-.03,.26-.14,.28-.29,.02-.15-.06-.29-.19-.35-.68-.31-1.42-.47-2.17-.46-1.62,.02-3.14,.67-4.29,1.81-1.42,1.41-2.21,3.29-2.25,5.3-.04,2.48,.87,4.84,2.57,6.65,2.11,2.24,4.96,3.56,8.03,3.71,.24,.01,.47,.02,.71,.02,3.57,0,6.98-1.28,9.67-3.66,1.12-.99,2.06-2.12,2.79-3.36,1.71-2.92,2.2-6.51,1.31-9.61-.94-3.27-3.43-6.01-6.49-7.14Z"/><path class="cls-1" d="M442.77,135.35c5.03,.2,10.1,.55,15.09,1.04h.04c1.74-.04,3.23-.29,4.56-.78,3.07-1.13,5.55-3.86,6.49-7.14,.89-3.1,.4-6.69-1.31-9.61-.73-1.24-1.67-2.37-2.79-3.36-2.87-2.53-6.56-3.82-10.37-3.64-3.07,.15-5.93,1.46-8.03,3.71-1.7,1.81-2.61,4.17-2.57,6.65,.03,2,.83,3.88,2.25,5.3,1.15,1.14,2.67,1.79,4.29,1.81,.74,0,1.49-.15,2.17-.46,.13-.06,.21-.2,.19-.35-.02-.15-.13-.26-.28-.29-1.43-.24-2.77-1.5-3.59-3.37-.29-.67-.44-1.38-.44-2.1,0-3.31,2.59-5.03,5.02-5.53,3.8-.79,7.72,1.12,9.12,4.44,1.17,2.8,.12,6.86-2.25,8.7-1.32,1.02-2.8,1.52-4.16,1.42-4.37-.39-8.82-.68-13.22-.86-.62-.03-1.22,.2-1.66,.63-.41,.39-.64,.91-.65,1.45v.04c0,.28,.04,.55,.12,.81,.26,.86,1.07,1.47,2.01,1.51Z"/><path class="cls-1" d="M421.23,584.65c-5.02-.2-10.1-.55-15.09-1.04-.01,0-.03,0-.04,0-1.74,.04-3.23,.3-4.56,.79-3.07,1.13-5.55,3.86-6.49,7.14-.89,3.1-.4,6.69,1.31,9.61,.73,1.24,1.67,2.37,2.79,3.36,2.69,2.37,6.1,3.66,9.67,3.66,.23,0,.47,0,.71-.02,3.07-.15,5.93-1.46,8.03-3.71,1.7-1.81,2.61-4.17,2.57-6.65-.03-2-.83-3.88-2.25-5.3-1.15-1.14-2.67-1.79-4.29-1.81-.74-.01-1.49,.15-2.17,.46-.13,.06-.21,.2-.19,.35s.13,.26,.28,.29c1.43,.24,2.77,1.5,3.59,3.37,.29,.67,.44,1.38,.44,2.1,0,3.31-2.59,5.03-5.02,5.53-3.8,.79-7.72-1.12-9.12-4.44-1.17-2.8-.12-6.86,2.25-8.7,1.32-1.02,2.79-1.52,4.15-1.42h0c4.37,.39,8.82,.68,13.22,.86,.62,.03,1.22-.2,1.66-.63,.41-.39,.64-.91,.65-1.49,0-.28-.04-.55-.12-.81-.26-.86-1.07-1.47-2.01-1.51Z"/><path class="cls-1" d="M429.39,133.03c0,1.44,1.17,2.61,2.61,2.61s2.61-1.17,2.61-2.61-1.17-2.61-2.61-2.61-2.61,1.17-2.61,2.61Z"/><path class="cls-1" d="M434.61,586.97c0-1.44-1.17-2.61-2.61-2.61s-2.61,1.17-2.61,2.61,1.17,2.61,2.61,2.61,2.61-1.17,2.61-2.61Z"/><path class="cls-1" d="M244.65,220.3c-.37-.29-.79-.54-1.23-.72-.13-.05-.28-.02-.37,.08-1.5,1.54-3.01,3.13-4.48,4.72-.09,.09-.11,.23-.07,.35,.31,.83,.84,1.57,1.52,2.12,.39,.32,.83,.57,1.31,.76,.04,.02,.08,.02,.12,.02,.09,0,.18-.04,.25-.11,1.47-1.59,2.98-3.19,4.5-4.75,.1-.1,.12-.25,.07-.37-.36-.83-.92-1.55-1.62-2.1Z"/><path class="cls-1" d="M619.35,499.7c.37,.29,.79,.54,1.23,.72,.04,.02,.09,.03,.13,.03,.09,0,.18-.04,.24-.1,1.5-1.54,3.01-3.13,4.48-4.72,.09-.09,.11-.23,.07-.35-.31-.83-.84-1.57-1.52-2.12-.39-.32-.83-.57-1.31-.76-.13-.05-.28-.02-.37,.09-1.47,1.6-2.99,3.19-4.5,4.75-.1,.1-.12,.25-.07,.37,.36,.83,.92,1.55,1.62,2.1Z"/><path class="cls-1" d="M622.55,227.62s.08,0,.12-.02c.48-.19,.92-.44,1.31-.76,.68-.55,1.2-1.28,1.52-2.12,.04-.12,.02-.25-.07-.35-1.47-1.59-2.97-3.17-4.48-4.72-.1-.1-.24-.13-.37-.08-.44,.19-.86,.43-1.23,.72-.7,.55-1.25,1.27-1.62,2.1-.06,.13-.03,.27,.07,.37,1.51,1.56,3.03,3.15,4.5,4.75,.07,.07,.16,.11,.25,.11Z"/><path class="cls-1" d="M241.33,492.4c-.48,.19-.92,.44-1.31,.76-.68,.55-1.2,1.28-1.52,2.12-.05,.12-.02,.25,.07,.35,1.47,1.59,2.98,3.18,4.48,4.72,.07,.07,.15,.1,.24,.1,.04,0,.09,0,.13-.03,.45-.19,.86-.43,1.23-.72,.69-.55,1.25-1.27,1.62-2.1,.06-.13,.03-.27-.07-.37-1.51-1.56-3.03-3.15-4.5-4.75-.09-.1-.24-.14-.37-.09Z"/><path class="cls-1" d="M213.73,262.61c.04,.13,.14,.22,.28,.24,.02,0,.03,0,.05,0,.11,0,.22-.06,.28-.15,5.11-7.87,10.72-15.57,16.67-22.87,.06-.08,.09-.18,.07-.28s-.08-.18-.17-.23c-1.08-.58-2.04-1.34-2.87-2.25-.07-.07-.16-.12-.26-.11-.1,0-.19,.05-.25,.12-5.52,6.78-10.76,13.9-15.58,21.18-.07,.11-.08,.25,0,.37,.78,1.23,1.38,2.57,1.79,3.98Z"/><path class="cls-1" d="M650.27,457.39c-.04-.13-.14-.22-.28-.24-.13-.02-.26,.04-.33,.15-5.11,7.87-10.72,15.57-16.67,22.87-.06,.08-.09,.18-.07,.28s.08,.18,.17,.23c1.08,.59,2.04,1.34,2.87,2.25,.06,.07,.16,.11,.25,.11h0c.1,0,.19-.05,.25-.12,5.52-6.78,10.76-13.9,15.58-21.18,.07-.11,.08-.25,0-.37-.78-1.23-1.38-2.57-1.79-3.98Z"/><path class="cls-1" d="M636.22,236.96c-.1,0-.19,.04-.26,.11-.82,.91-1.79,1.66-2.87,2.25-.09,.05-.15,.13-.17,.23s0,.2,.07,.28c5.95,7.3,11.56,15,16.67,22.87,.06,.1,.17,.15,.28,.15,.02,0,.03,0,.05,0,.13-.02,.24-.11,.28-.24,.41-1.41,1.01-2.75,1.79-3.98,.07-.11,.07-.26,0-.37-4.82-7.28-10.06-14.4-15.58-21.18-.06-.08-.15-.12-.25-.12Z"/><path class="cls-1" d="M227.78,483.04h0c.1,0,.19-.04,.25-.11,.82-.91,1.79-1.66,2.87-2.25,.09-.05,.15-.13,.17-.23,.02-.1,0-.2-.07-.28-5.95-7.3-11.56-15-16.67-22.87-.07-.11-.2-.17-.33-.15-.13,.02-.24,.11-.28,.24-.41,1.41-1.01,2.75-1.79,3.98-.07,.11-.07,.26,0,.37,4.82,7.28,10.06,14.4,15.58,21.18,.06,.08,.15,.12,.25,.12Z"/><path class="cls-1" d="M239.28,238.92c1.19,0,2.39-.17,3.65-.51-.6,.68-1.19,1.37-1.77,2.05-8.26,9.67-15.85,20.04-22.56,30.84-1.71,2.76-3.4,5.59-5,8.41-.09,.16-.04,.35,.11,.45,.15,.1,.35,.06,.46-.08,7.2-9.64,19.73-15.85,31.95-15.85h.14c.12,0,.24-.07,.3-.18,.06-.11,.05-.24-.02-.35-2.72-4.05-3.9-9.14-3.23-13.97,.45-3.23,1.71-6.36,3.66-9.06,.36-.49,.74-.98,1.15-1.44,6.54-7.33,13.59-14.32,20.95-20.81-.58,1.54-.99,3.14-1.21,4.75-.82,5.98,.72,11.9,4.14,15.82,3.03,3.47,7.85,5.32,12.6,4.84,4.54-.46,8.91-3.04,11.71-6.89,2.66-3.67,3.9-8.48,3.42-13.21-.07-.66-.17-1.32-.26-1.96-.22-1.47-.45-2.99-.28-4.47,.38-3.37,3.06-6.39,6.35-7.18,.16-.04,.27-.19,.26-.36s-.15-.3-.32-.31c-5.56-.3-10.87,2.76-13.36,7.65-2.43-1.22-5.5-1.21-7.91,.05-2.52,1.31-4.32,3.99-4.6,6.81-.27,2.7,.78,5.02,3.12,6.91,.12,.1,.29,.1,.41,.01,.12-.09,.17-.25,.12-.39-.77-2.01-.04-4.53,1.74-5.99,1.68-1.37,3.82-1.41,5.87-.11,1.25,.79,2.08,1.89,2.35,3.11,.57,2.6-.92,5.08-2.5,6.53-2.13,1.95-5.12,2.96-8,2.7-2.88-.26-5.64-1.8-7.38-4.1-2.17-2.86-2.86-7.02-1.86-11.13,.58-2.4,1.78-4.93,3.54-7.54,2.3-3.41,5.41-6.56,9.23-9.36,42.53-31.23,92.94-47.77,145.76-47.83v-.34h0v.34c52.83,.06,103.23,16.6,145.76,47.83,3.82,2.8,6.92,5.95,9.23,9.36,1.76,2.61,2.96,5.15,3.54,7.54,1,4.1,.31,8.26-1.86,11.13-1.74,2.31-4.5,3.84-7.38,4.1-2.88,.26-5.87-.75-8-2.7-1.58-1.45-3.07-3.93-2.5-6.53,.27-1.21,1.1-2.32,2.35-3.11,2.06-1.3,4.2-1.26,5.87,.11,1.78,1.46,2.52,3.98,1.74,5.99-.06,.14,0,.3,.12,.39,.12,.09,.29,.09,.41-.01,2.34-1.89,3.39-4.21,3.12-6.91-.28-2.82-2.09-5.5-4.6-6.81-2.41-1.26-5.47-1.27-7.91-.05-2.49-4.88-7.8-7.95-13.36-7.65-.17,0-.3,.14-.32,.31s.09,.32,.26,.36c3.3,.79,5.97,3.81,6.35,7.18,.17,1.47-.06,2.99-.28,4.47-.1,.64-.2,1.31-.26,1.96-.49,4.73,.76,9.54,3.42,13.21,2.79,3.85,7.17,6.42,11.71,6.89,4.75,.48,9.58-1.37,12.6-4.84,3.42-3.92,4.97-9.83,4.14-15.82-.22-1.62-.63-3.21-1.21-4.75,7.36,6.49,14.4,13.49,20.94,20.81,.4,.46,.79,.95,1.15,1.44,1.95,2.69,3.22,5.83,3.66,9.06,.67,4.83-.51,9.92-3.23,13.97-.07,.1-.08,.24-.02,.35,.06,.11,.17,.18,.3,.18,.04,0,.09,0,.14,0,12.22,0,24.74,6.21,31.95,15.85,.07,.09,.17,.14,.27,.14,.06,0,.13-.02,.18-.06,.15-.1,.2-.29,.11-.45-1.6-2.82-3.28-5.65-5-8.41-6.71-10.8-14.29-21.17-22.56-30.84-.58-.68-1.18-1.37-1.77-2.05,1.26,.34,2.46,.51,3.65,.51,7.9,0,14.26-8.16,14.26-14.92,0-7.96-7.36-14.94-15.74-14.94-6.34,0-9.76,4.54-9.76,8.8,0,.83,.11,1.7,.36,2.83,.03,.14,.15,.25,.29,.26,.15,.01,.28-.06,.34-.2,1.37-2.98,4.36-4.08,6.52-4.11h.08c3.1,0,7.42,2.52,7.42,6.63,0,3.43-3.03,7.25-7.37,7.25-1.36,0-2.96-.31-4.75-.92-3.25-1.12-6.3-3.05-9.06-5.74-23.3-22.76-50.37-40.54-80.47-52.85-30.22-12.36-62.13-18.65-94.85-18.68-32.72,.04-64.63,6.33-94.84,18.68-30.1,12.31-57.17,30.09-80.47,52.85-2.76,2.69-5.8,4.63-9.06,5.74-1.79,.61-3.39,.92-4.75,.92-4.34,0-7.37-3.82-7.37-7.25,0-4.11,4.32-6.63,7.42-6.63h.08c2.15,.03,5.15,1.13,6.52,4.12,.06,.13,.2,.21,.34,.2,.14-.02,.26-.12,.29-.26,.25-1.13,.36-2.01,.36-2.83,0-4.27-3.42-8.8-9.76-8.8-8.39,0-15.74,6.98-15.74,14.94,0,6.76,6.36,14.92,14.26,14.92Z"/><path class="cls-1" d="M624.72,481.08c-1.19,0-2.39,.17-3.65,.51,.6-.69,1.19-1.37,1.77-2.05,8.26-9.67,15.85-20.04,22.56-30.84,1.72-2.76,3.4-5.59,5-8.41,.09-.16,.04-.35-.11-.45-.15-.1-.35-.06-.46,.08-7.2,9.64-19.73,15.85-31.95,15.85-.05,0-.09,0-.14,0h0c-.12,0-.24,.07-.3,.18-.06,.11-.05,.24,.02,.35,2.72,4.05,3.9,9.14,3.23,13.97-.45,3.23-1.71,6.36-3.66,9.06-.36,.49-.74,.98-1.15,1.44-6.54,7.33-13.59,14.32-20.95,20.81,.58-1.54,.99-3.14,1.21-4.75,.82-5.98-.72-11.9-4.14-15.82-3.03-3.47-7.86-5.33-12.6-4.84-4.54,.46-8.91,3.04-11.71,6.89-2.66,3.67-3.9,8.48-3.42,13.21,.07,.66,.17,1.32,.26,1.96,.22,1.47,.45,2.99,.28,4.47-.38,3.37-3.06,6.39-6.35,7.18-.16,.04-.27,.19-.26,.36,.02,.17,.15,.3,.32,.31,5.55,.29,10.87-2.76,13.36-7.65,2.43,1.22,5.49,1.21,7.91-.05,2.52-1.31,4.32-3.99,4.6-6.81,.27-2.7-.78-5.02-3.12-6.91-.12-.1-.29-.1-.41-.01-.12,.09-.17,.25-.12,.39,.77,2.01,.04,4.53-1.74,5.99-1.68,1.37-3.82,1.41-5.87,.11-1.25-.79-2.08-1.89-2.35-3.11-.57-2.6,.92-5.08,2.5-6.53,2.13-1.95,5.12-2.96,8-2.7,2.88,.26,5.64,1.8,7.38,4.1,2.17,2.86,2.86,7.02,1.86,11.13-.58,2.4-1.78,4.93-3.54,7.54-2.3,3.41-5.41,6.56-9.23,9.36-42.53,31.23-92.94,47.77-145.76,47.83v0c-52.83-.06-103.23-16.6-145.77-47.83-3.82-2.8-6.92-5.95-9.23-9.36-1.76-2.61-2.96-5.15-3.54-7.54-1-4.1-.31-8.26,1.86-11.13,1.74-2.3,4.5-3.84,7.38-4.1,2.88-.26,5.87,.75,8,2.7,1.58,1.45,3.07,3.93,2.5,6.53-.27,1.21-1.1,2.32-2.35,3.11-2.06,1.3-4.2,1.26-5.87-.11-1.78-1.46-2.52-3.98-1.74-5.99,.05-.14,0-.3-.12-.39-.12-.09-.29-.09-.41,.01-2.34,1.89-3.39,4.21-3.12,6.91,.28,2.82,2.09,5.5,4.6,6.81,2.41,1.26,5.47,1.27,7.91,.05,2.49,4.89,7.81,7.94,13.36,7.65,.17,0,.3-.14,.32-.31,.02-.17-.09-.32-.26-.36-3.3-.79-5.97-3.81-6.35-7.18-.17-1.47,.06-2.99,.28-4.47,.1-.64,.2-1.31,.26-1.96,.49-4.73-.76-9.54-3.42-13.21-2.79-3.85-7.17-6.42-11.71-6.89-4.74-.48-9.58,1.37-12.6,4.84-3.42,3.92-4.97,9.83-4.14,15.82,.22,1.62,.63,3.21,1.21,4.75-7.36-6.49-14.4-13.49-20.95-20.81-.4-.46-.79-.95-1.15-1.44-1.95-2.7-3.22-5.83-3.66-9.06-.67-4.83,.51-9.92,3.23-13.97,.07-.1,.08-.24,.02-.35-.06-.11-.17-.17-.3-.18-12.24,.05-24.86-6.17-32.09-15.85-.11-.14-.31-.18-.46-.08-.15,.1-.2,.29-.11,.45,1.6,2.82,3.29,5.65,5,8.41,6.71,10.8,14.29,21.17,22.56,30.84,.58,.68,1.17,1.37,1.77,2.05-1.26-.34-2.46-.51-3.65-.51-7.9,0-14.26,8.16-14.26,14.92,0,7.96,7.36,14.94,15.74,14.94,6.34,0,9.76-4.54,9.76-8.8,0-.83-.11-1.7-.36-2.83-.03-.14-.15-.25-.29-.26-.14-.02-.28,.06-.34,.2-1.37,2.98-4.36,4.08-6.52,4.11h-.08c-3.1,0-7.42-2.52-7.42-6.63,0-3.43,3.03-7.25,7.37-7.25,1.36,0,2.96,.31,4.75,.92,3.25,1.12,6.3,3.05,9.06,5.74,23.3,22.76,50.37,40.54,80.47,52.85,30.22,12.36,62.13,18.65,94.85,18.68,32.72-.04,64.63-6.33,94.84-18.68,30.1-12.31,57.17-30.09,80.47-52.85,2.76-2.69,5.8-4.63,9.06-5.74,1.79-.61,3.39-.92,4.75-.92,4.34,0,7.37,3.82,7.37,7.25,0,4.11-4.32,6.63-7.42,6.63h-.08c-2.15-.03-5.15-1.13-6.52-4.12-.06-.13-.2-.21-.34-.2-.14,.02-.26,.12-.29,.26-.25,1.13-.36,2-.36,2.83,0,4.27,3.42,8.8,9.76,8.8,8.39,0,15.74-6.98,15.74-14.94,0-6.76-6.36-14.92-14.26-14.92Z"/><polygon class="cls-6" points="186.89 310.12 148.76 360 186.89 409.88 677.11 409.88 715.24 360 677.11 310.12 186.89 310.12"/><path class="cls-1" d="M684.47,295.25H179.53l-49.5,64.75,49.5,64.75h504.93l49.5-64.75-49.5-64.75Zm-2.67,120.47c-.69,.9-1.75,1.43-2.89,1.43H185.09c-1.13,0-2.2-.53-2.89-1.43l-40.9-53.51c-1-1.3-1-3.11,0-4.41l40.9-53.51c.69-.9,1.75-1.43,2.89-1.43h493.82c1.13,0,2.2,.53,2.89,1.43l40.9,53.51c1,1.3,1,3.11,0,4.41l-40.9,53.51Z"/><path class="cls-1" d="M425.13,128.09c1.86-1.69,4.26-2.71,6.77-2.9h.21c2.5,.18,4.91,1.21,6.77,2.9,.06,.06,.15,.09,.23,.09,.07,0,.14-.02,.2-.07,.13-.09,.17-.27,.11-.41-1.47-3.19-1.77-7.03-.88-11.11,.03-.13-.02-.27-.13-.35-2.32-1.66-4.38-3.66-6.12-5.97-.13-.17-.41-.17-.54,0-1.74,2.3-3.8,4.31-6.12,5.97-.11,.08-.16,.22-.13,.35,.89,4.08,.59,7.92-.88,11.11-.07,.15-.02,.32,.11,.41,.13,.09,.31,.09,.43-.02Z"/><path class="cls-1" d="M438.87,591.91c-1.86,1.69-4.26,2.71-6.76,2.9h-.21c-2.5-.18-4.91-1.21-6.77-2.9-.12-.11-.3-.12-.43-.02-.13,.09-.17,.27-.11,.41,1.47,3.19,1.77,7.03,.88,11.11-.03,.13,.02,.27,.13,.35,2.32,1.65,4.38,3.66,6.12,5.97,.06,.08,.16,.13,.27,.13s.21-.05,.27-.13c1.74-2.3,3.8-4.31,6.12-5.97,.11-.08,.16-.22,.13-.35-.89-4.08-.59-7.92,.88-11.11,.07-.15,.02-.32-.11-.41-.13-.09-.31-.09-.43,.02Z"/><path class="cls-1" d="M253.93,243.42c.02-.19-.11-.35-.29-.38-.15-.02-.29,.07-.35,.2l-.04,.06c-1.37,2.3-5.37,10.98,.71,25.94,1.44,3.54,5.05,8.75,8.56,9.26,.2,.03,.41,.04,.63,.04,1.37,0,2.86-.62,3.34-1.94,.43-1.17-.12-2.41-.78-3.17-.24-.28-.54-.53-.83-.76-.19-.15-.36-.29-.52-.44-7.82-7.45-11.72-18.22-10.42-28.81h0Z"/><path class="cls-1" d="M610.37,476.95s.03,0,.04,0c.14,0,.26-.08,.31-.2l.04-.06c1.37-2.3,5.37-10.98-.71-25.94-1.44-3.54-5.05-8.75-8.56-9.26-1.51-.22-3.41,.37-3.96,1.9-.43,1.17,.12,2.41,.78,3.17,.24,.28,.54,.53,.83,.76,.19,.15,.36,.29,.52,.44,7.82,7.45,11.72,18.22,10.42,28.81-.02,.19,.11,.35,.29,.38Z"/><path class="cls-1" d="M600.86,278.55c.21,0,.42-.02,.63-.04,3.51-.52,7.12-5.73,8.56-9.26,6.09-14.96,2.09-23.63,.71-25.94l-.04-.06c-.06-.13-.19-.22-.35-.2-.19,.02-.32,.19-.29,.38,1.3,10.59-2.6,21.36-10.42,28.81-.16,.15-.33,.29-.52,.44-.29,.23-.59,.48-.83,.76-.66,.76-1.21,2-.78,3.17,.48,1.32,1.97,1.94,3.34,1.94Z"/><path class="cls-1" d="M262.52,441.49c-3.51,.51-7.12,5.73-8.56,9.26-6.09,14.95-2.09,23.63-.71,25.94l.04,.06c.05,.12,.17,.2,.31,.2,.01,0,.03,0,.04,0,.19-.02,.32-.19,.29-.38h0c-1.3-10.59,2.6-21.36,10.42-28.81,.16-.15,.33-.29,.52-.44,.29-.24,.59-.48,.83-.76,.66-.76,1.21-2,.78-3.17-.56-1.53-2.46-2.12-3.96-1.9Z"/><path class="cls-1" d="M270.86,268.71c.19,.03,.4,.04,.6,.04,1.24,0,2.57-.53,3-1.66,.39-1.02-.13-2.09-.74-2.75-.22-.24-.5-.46-.76-.66-.17-.13-.33-.26-.48-.39-7.21-6.47-10.84-15.77-9.73-24.88,.02-.16-.1-.31-.26-.33-.13-.02-.25,.06-.31,.17l-.03,.05c-1.24,1.98-4.85,9.44,.82,22.37,1.34,3.06,4.67,7.57,7.88,8.03Z"/><path class="cls-1" d="M593.14,451.29c-1.37-.2-3.1,.3-3.6,1.61-.39,1.02,.13,2.09,.74,2.75,.22,.25,.5,.46,.76,.66,.17,.13,.33,.26,.48,.39,7.21,6.47,10.84,15.77,9.73,24.88-.02,.16,.1,.31,.26,.33,.01,0,.02,0,.04,0,.12,0,.22-.07,.27-.17l.03-.05c1.24-1.98,4.85-9.44-.82-22.37-1.34-3.06-4.67-7.57-7.88-8.03Z"/><path class="cls-1" d="M592.54,268.75c.2,0,.41-.01,.6-.04,3.21-.47,6.54-4.98,7.88-8.03,5.67-12.93,2.06-20.39,.82-22.37l-.03-.05c-.05-.11-.18-.19-.31-.17-.16,.02-.28,.17-.26,.33,1.11,9.11-2.52,18.41-9.73,24.88-.14,.13-.31,.25-.48,.39-.26,.2-.54,.42-.76,.66-.61,.66-1.12,1.74-.74,2.75,.43,1.13,1.76,1.66,3,1.66Z"/><path class="cls-1" d="M270.86,451.29c-3.21,.47-6.54,4.98-7.88,8.03-5.67,12.93-2.06,20.39-.82,22.37l.03,.05c.05,.1,.15,.17,.27,.17,.01,0,.02,0,.04,0,.16-.02,.28-.17,.26-.33-1.11-9.11,2.52-18.41,9.73-24.88,.14-.13,.31-.25,.48-.39,.27-.2,.54-.42,.76-.66,.61-.66,1.12-1.74,.74-2.75-.5-1.32-2.23-1.81-3.6-1.61Z"/></g></g><g id="text"><text class="cls-4" transform="translate(205.7 391.65)"><tspan class="cls-5" x="0" y="0">Hair </tspan><tspan class="cls-7" x="212.06" y="0">s</tspan><tspan class="cls-8" x="251.82" y="0">alon</tspan></text><circle class="cls-1" cx="669.78" cy="359.25" r="6.7"/><circle class="cls-1" cx="194.36" cy="359.25" r="6.7"/><text class="cls-3" transform="translate(323.24 217.95) rotate(-28.44)"><tspan x="0" y="0">e</tspan></text><text class="cls-3" transform="translate(336.54 210.77) rotate(-24.62)"><tspan x="0" y="0">s</tspan></text><text class="cls-3" transform="translate(349.2 204.97) rotate(-20.78)"><tspan x="0" y="0">t</tspan></text><text class="cls-3" transform="translate(360.91 200.36) rotate(-16.72)"><tspan x="0" y="0">a</tspan></text><text class="cls-3" transform="translate(380.01 194.7) rotate(-11.86)"><tspan x="0" y="0">b</tspan></text><text class="cls-3" transform="translate(396.39 191.32) rotate(-7.71)"><tspan x="0" y="0">l</tspan></text><text class="cls-3" transform="translate(410.88 189.46) rotate(-4.62)"><tspan x="0" y="0">i</tspan></text><text class="cls-3" transform="translate(419.45 188.71) rotate(-1.6)"><tspan x="0" y="0">s</tspan></text><text class="cls-3" transform="translate(433.28 188.25) rotate(2.78)"><tspan x="0" y="0">h</tspan></text><text class="cls-3" transform="translate(451.51 189.21) rotate(7.25)"><tspan x="0" y="0">e</tspan></text><text class="cls-3" transform="translate(466.77 191.15) rotate(11.46)"><tspan x="0" y="0">d</tspan></text><text class="cls-3" transform="translate(482.81 194.53) rotate(14.81)"><tspan x="0" y="0"> </tspan></text><text class="cls-3" transform="translate(491.32 196.72) rotate(17.92)"><tspan x="0" y="0">2</tspan></text><text class="cls-3" transform="translate(504.98 201.14) rotate(21.87)"><tspan x="0" y="0">0</tspan></text><text class="cls-3" transform="translate(519.22 206.96) rotate(25.19)"><tspan x="0" y="0">1</tspan></text><text class="cls-3" transform="translate(527.88 210.97) rotate(28.44)"><tspan x="0" y="0">9</tspan></text><text class="cls-2" transform="translate(304.41 518.03) rotate(30.62)"><tspan x="0" y="0">r</tspan></text><text class="cls-2" transform="translate(318.74 526.41) rotate(26.82)"><tspan x="0" y="0">e</tspan></text><text class="cls-2" transform="translate(332.2 533.15) rotate(23.26)"><tspan x="0" y="0">t</tspan></text><text class="cls-2" transform="translate(345.6 538.88) rotate(19.52)"><tspan x="0" y="0">r</tspan></text><text class="cls-2" transform="translate(361.32 544.36) rotate(15.64)"><tspan x="0" y="0">o</tspan></text><text class="cls-2" transform="translate(376.17 548.38) rotate(12.72)"><tspan x="0" y="0"> </tspan></text><text class="cls-2" transform="translate(384.86 550.4) rotate(9.71)"><tspan x="0" y="0">b</tspan></text><text class="cls-2" transform="translate(400.96 553.09) rotate(5.75)"><tspan x="0" y="0">r</tspan></text><text class="cls-2" transform="translate(417.59 554.74) rotate(1.43)"><tspan x="0" y="0">a</tspan></text><text class="cls-2" transform="translate(437.03 555.12) rotate(-3.27)"><tspan x="0" y="0">n</tspan></text><text class="cls-2" transform="translate(455.72 553.93) rotate(-7.43)"><tspan x="0" y="0">d</tspan></text><text class="cls-2" transform="translate(471.23 551.78) rotate(-10.38)"><tspan x="0" y="0"> </tspan></text><text class="cls-2" transform="translate(480 550.22) rotate(-13.33)"><tspan x="0" y="0">d</tspan></text><text class="cls-2" transform="translate(495.37 546.5) rotate(-17.05)"><tspan x="0" y="0">e</tspan></text><text class="cls-2" transform="translate(509.41 542.13) rotate(-20.42)"><tspan x="0" y="0">s</tspan></text><text class="cls-2" transform="translate(522.06 537.32) rotate(-23.1)"><tspan x="0" y="0">i</tspan></text><text class="cls-2" transform="translate(530.13 533.92) rotate(-25.94)"><tspan x="0" y="0">g</tspan></text><text class="cls-2" transform="translate(543.77 527.28) rotate(-30.01)"><tspan x="0" y="0">n</tspan></text></g></svg>